<svg xmlns="http://www.w3.org/2000/svg" xmlns:xlink="http://www.w3.org/1999/xlink" width="296.318" height="79.983" viewBox="0 0 296.318 79.983"><defs><linearGradient id="a" x1="-6.498" y1="-3.962" x2="-6.403" y2="-2.848" gradientUnits="objectBoundingBox"><stop offset="0.133" stop-color="#dae5eb"/><stop offset="0.86" stop-color="#003452"/></linearGradient><linearGradient id="b" x1="-7.13" y1="-3.155" x2="-7.034" y2="-2.041" xlink:href="#a"/><linearGradient id="c" x1="-3.569" y1="-9.419" x2="-3.475" y2="-8.304" xlink:href="#a"/></defs><g transform="translate(91.252 8.002)"><path d="M391.429,260.966h12.241a31.555,31.555,0,0,1,4.286.3,11.8,11.8,0,0,1,3.877,1.205A7.436,7.436,0,0,1,414.614,265a7.756,7.756,0,0,1,1.068,4.312,6.875,6.875,0,0,1-1.556,4.616,8.5,8.5,0,0,1-4.107,2.619v.089a9.428,9.428,0,0,1,2.948.908,7.832,7.832,0,0,1,2.269,1.713,7.233,7.233,0,0,1,1.46,2.439,8.5,8.5,0,0,1,.511,2.965,7.877,7.877,0,0,1-1.11,4.332,8.69,8.69,0,0,1-2.877,2.806,12.7,12.7,0,0,1-3.963,1.534,21.216,21.216,0,0,1-4.38.46H391.429Zm7.236,13.118h5.241a7.324,7.324,0,0,0,1.644-.182,4.721,4.721,0,0,0,1.46-.6,3.214,3.214,0,0,0,1.043-1.114,3.317,3.317,0,0,0,.4-1.672,3.042,3.042,0,0,0-.441-1.691,3.088,3.088,0,0,0-1.138-1.043,5.554,5.554,0,0,0-1.572-.532,9.606,9.606,0,0,0-1.72-.16h-4.912Zm0,13.586h6.49a7.958,7.958,0,0,0,1.691-.185,4.414,4.414,0,0,0,1.553-.651,3.649,3.649,0,0,0,1.139-1.2,3.539,3.539,0,0,0,.435-1.812,2.887,2.887,0,0,0-.58-1.878,3.673,3.673,0,0,0-1.453-1.09,7.494,7.494,0,0,0-1.9-.508,13.917,13.917,0,0,0-1.9-.141h-5.468Z" transform="translate(-391.429 -260.129)" fill="#003452"/><path d="M411.7,260.966h12.7a22.371,22.371,0,0,1,4.754.488,11.288,11.288,0,0,1,3.942,1.622,8.1,8.1,0,0,1,2.687,3.06,10.362,10.362,0,0,1,1,4.8,9.651,9.651,0,0,1-1.8,5.911,8.171,8.171,0,0,1-5.289,3.084l8.35,13.861h-8.674L422.5,280.67h-3.571v13.12H411.7Zm7.23,13.581H423.2q.972,0,2.065-.068a6.377,6.377,0,0,0,1.969-.417,3.348,3.348,0,0,0,1.462-1.091,3.3,3.3,0,0,0,.577-2.085,3.513,3.513,0,0,0-.506-1.994,3.4,3.4,0,0,0-1.295-1.134,5.819,5.819,0,0,0-1.812-.532,14.82,14.82,0,0,0-2-.139h-4.731Z" transform="translate(-378.181 -260.129)" fill="#003452"/><path d="M430.91,277.71a18.54,18.54,0,0,1,1.324-7.141,15.674,15.674,0,0,1,3.684-5.447,16.26,16.26,0,0,1,5.61-3.456,21.45,21.45,0,0,1,14.188,0,16.243,16.243,0,0,1,5.61,3.456,15.655,15.655,0,0,1,3.686,5.447,19.935,19.935,0,0,1,0,14.281,15.64,15.64,0,0,1-3.686,5.447,16.167,16.167,0,0,1-5.61,3.454,21.451,21.451,0,0,1-14.188,0,16.184,16.184,0,0,1-5.61-3.454,15.658,15.658,0,0,1-3.684-5.447A18.538,18.538,0,0,1,430.91,277.71Zm7.513,0a12.085,12.085,0,0,0,.716,4.244,9.8,9.8,0,0,0,2.064,3.335,9.457,9.457,0,0,0,3.221,2.2,11.564,11.564,0,0,0,8.395,0,9.376,9.376,0,0,0,3.224-2.2,9.9,9.9,0,0,0,2.064-3.335,12.838,12.838,0,0,0,0-8.464,9.755,9.755,0,0,0-2.064-3.36,9.335,9.335,0,0,0-3.224-2.2,11.54,11.54,0,0,0-8.395,0,9.415,9.415,0,0,0-3.221,2.2,9.655,9.655,0,0,0-2.064,3.36A12.11,12.11,0,0,0,438.423,277.71Z" transform="translate(-365.63 -260.46)" fill="#003452"/><path d="M457.579,260.966h7.231v13.628l12.746-13.628h9.463l-14.6,15.253,15.858,17.571H478.163L464.81,278.21v15.58h-7.231Z" transform="translate(-348.203 -260.129)" fill="#003452"/><path d="M479.927,260.966h22.3v6.675H487.157v6.121h14.236v6.675H487.157v6.677h15.9v6.677H479.927Z" transform="translate(-333.6 -260.129)" fill="#003452"/><path d="M499.525,260.966h12.7a22.368,22.368,0,0,1,4.757.488,11.3,11.3,0,0,1,3.94,1.622,8.027,8.027,0,0,1,2.687,3.06,10.281,10.281,0,0,1,.994,4.8,9.649,9.649,0,0,1-1.8,5.911,8.147,8.147,0,0,1-5.286,3.084l8.343,13.861h-8.666l-6.864-13.12h-3.571v13.12h-7.234Zm7.234,13.581h4.266c.651,0,1.331-.021,2.062-.068a6.388,6.388,0,0,0,1.971-.417,3.321,3.321,0,0,0,1.455-1.091,3.284,3.284,0,0,0,.585-2.085,3.194,3.194,0,0,0-1.807-3.128,5.818,5.818,0,0,0-1.812-.532,14.8,14.8,0,0,0-1.994-.139h-4.726Z" transform="translate(-320.794 -260.129)" fill="#003452"/><path d="M391.463,287.4h4.7L410.7,309.1h.076V287.4h3.571v26.391H409.8L395.115,292.1h-.071v21.695h-3.581Z" transform="translate(-391.407 -242.853)" fill="#003452"/><path d="M411.1,287.4h17.039v3.352H414.685v7.866H427.21v3.356H414.685v8.466h14.125v3.351H411.1Z" transform="translate(-378.576 -242.853)" fill="#003452"/><path d="M433.261,290.756h-8.5V287.4h20.576v3.352h-8.5v23.039h-3.58Z" transform="translate(-369.645 -242.853)" fill="#003452"/><path d="M439.174,287.4H442.9l5.837,21.1h.071l6.21-21.1h4.1l6.207,21.1h.076l5.837-21.1h3.724l-7.68,26.391h-3.8L457.1,292.249h-.071l-6.341,21.546h-3.8Z" transform="translate(-360.23 -242.853)" fill="#003452"/><path d="M477.349,314.734a14.142,14.142,0,0,1-5.552-1.063,12.765,12.765,0,0,1-4.345-2.927,13.464,13.464,0,0,1-2.837-4.4,15.2,15.2,0,0,1,0-10.966,13.506,13.506,0,0,1,2.837-4.4,12.834,12.834,0,0,1,4.345-2.925,15.048,15.048,0,0,1,11.1,0,12.932,12.932,0,0,1,4.345,2.925,13.718,13.718,0,0,1,2.836,4.4,15.266,15.266,0,0,1,0,10.966,13.675,13.675,0,0,1-2.836,4.4,12.862,12.862,0,0,1-4.345,2.927A14.18,14.18,0,0,1,477.349,314.734Zm0-3.353a9.58,9.58,0,0,0,7.227-3.1,9.925,9.925,0,0,0,2.017-3.333,12.114,12.114,0,0,0,0-8.17,10.014,10.014,0,0,0-2.017-3.335,9.891,9.891,0,0,0-14.463,0,9.976,9.976,0,0,0-2.012,3.335,12.17,12.17,0,0,0,0,8.17,9.887,9.887,0,0,0,2.012,3.333,9.6,9.6,0,0,0,7.235,3.1Z" transform="translate(-344.275 -243.119)" fill="#003452"/><path d="M485.033,287.4h9.281a10.88,10.88,0,0,1,4.178.686,7.087,7.087,0,0,1,2.591,1.756,5.912,5.912,0,0,1,1.323,2.381,9.4,9.4,0,0,1,.374,2.558,6.767,6.767,0,0,1-.448,2.439,6.993,6.993,0,0,1-1.281,2.125,7.27,7.27,0,0,1-2.055,1.605,7.125,7.125,0,0,1-2.7.8l7.5,12.04h-4.481l-6.71-11.63h-3.988v11.63h-3.578Zm3.578,11.627h4.694a13.123,13.123,0,0,0,2.073-.164,5.522,5.522,0,0,0,1.824-.617,3.38,3.38,0,0,0,1.29-1.286,5.142,5.142,0,0,0,0-4.365,3.383,3.383,0,0,0-1.29-1.283,5.6,5.6,0,0,0-1.824-.618,13.527,13.527,0,0,0-2.073-.167h-4.694Z" transform="translate(-330.264 -242.853)" fill="#003452"/><path d="M500.5,287.4h3.583v11.405h.3L516.051,287.4h4.992l-12.75,12.188,13.6,14.2H516.68l-12.3-13.2h-.3v13.2H500.5Z" transform="translate(-320.157 -242.853)" fill="#003452"/></g><path d="M348.649,301.051l-12.409-6.923,12.838-6.087Z" transform="translate(-336.24 -234.435)" opacity="0.9" fill="url(#a)"/><path d="M373.8,304.155,361.356,297.3l12.807-6.158Z" transform="translate(-319.828 -232.412)" opacity="0.9" fill="url(#b)"/><path d="M360.8,308.518l-13.743-8.253,14.69-6.406Z" transform="translate(-329.169 -230.634)" opacity="0.9" fill="url(#c)"/><path d="M347.565,320.071l-5.286-3.044V263.986l5.286-2.518Z" transform="translate(-332.294 -251.799)" fill="#003452"/><path d="M372.185,317.316l-5.283-2.861V274.027l5.283-1.356Z" transform="translate(-316.204 -244.479)" fill="#003452"/><path d="M370.09,317.316l5.283-2.861V275.028l-5.283-2.357Z" transform="translate(-314.121 -244.479)" fill="#dae5eb"/><path d="M360.049,335.6,353.4,331.58V258.827l6.648-3.206Z" transform="translate(-325.027 -255.621)" fill="#003452"/><path d="M345.476,320.122l5.283-3.046V264.014l-5.283-2.516Z" transform="translate(-330.205 -251.78)" fill="#dae5eb"/><path d="M357.435,335.579l5.28-4.147V259.088l-5.28-3.43Z" transform="translate(-322.39 -255.596)" fill="#dae5eb"/></svg>