<svg xmlns="http://www.w3.org/2000/svg" width="271.841" height="79.983" viewBox="0 0 271.841 79.983"><path d="M595.254,389.988H856.517v6.791H595.254v-6.791Z" transform="translate(-594.674 -350.374)" fill="#ae191c" fill-rule="evenodd"/><path d="M716.07,389.395c-.755,3.018-2.074,4.337-4.527,6.035a17.156,17.156,0,0,1-9.432,2.452,15.543,15.543,0,0,1-5.281-.753,16.587,16.587,0,0,1-4.527-2.076,12.464,12.464,0,0,1-3.774-4.527,14.225,14.225,0,0,1-1.319-6.224,11.4,11.4,0,0,1,1.319-5.66,11.96,11.96,0,0,1,3.019-4.339,11.034,11.034,0,0,1,4.527-2.642,13.764,13.764,0,0,1,5.66-.942,15.134,15.134,0,0,1,10.752,3.961,13.653,13.653,0,0,1,4.339,10,6.5,6.5,0,0,1-.189,1.7v.189H697.585a4.3,4.3,0,0,0,1.319,3.584,5.538,5.538,0,0,0,3.584,1.321,3.992,3.992,0,0,0,2.642-.755c.755-.566.942-.566.942-1.51l10,.19ZM697.4,381.282l9.242.189v-.189a4.033,4.033,0,0,0-1.508-3.206,4.149,4.149,0,0,0-3.208-1.132,3.983,3.983,0,0,0-3.018,1.132A3.581,3.581,0,0,0,697.4,380.9v.377Z" transform="translate(-544.396 -360.909)" fill="#222121" fill-rule="evenodd"/><path d="M712.413,417.2c-.755,3.019-2.076,4.34-4.527,6.037a17.165,17.165,0,0,1-9.432,2.453,15.551,15.551,0,0,1-5.282-.755,16.6,16.6,0,0,1-4.527-2.076,12.447,12.447,0,0,1-3.773-4.527,14.205,14.205,0,0,1-1.321-6.224,11.39,11.39,0,0,1,1.321-5.66,11.993,11.993,0,0,1,3.018-4.339,11.042,11.042,0,0,1,4.527-2.64,13.743,13.743,0,0,1,5.66-.943,15.138,15.138,0,0,1,10.752,3.961,13.652,13.652,0,0,1,4.339,10,6.532,6.532,0,0,1-.187,1.7v.189H693.926a4.3,4.3,0,0,0,1.319,3.584,5.538,5.538,0,0,0,3.585,1.321,3.991,3.991,0,0,0,2.64-.755c.755-.566.944-.566.944-1.508l10,.187Zm-18.676-8.111,9.244.189v-.189a4.03,4.03,0,0,0-1.51-3.206,4.147,4.147,0,0,0-3.206-1.132,3.984,3.984,0,0,0-3.019,1.132,3.586,3.586,0,0,0-1.508,2.831v.376Z" transform="translate(-546.397 -345.706)" fill="#222121" fill-rule="evenodd"/><path d="M767.78,417.2c-.755,3.019-2.076,4.34-4.528,6.037a17.164,17.164,0,0,1-9.432,2.453,15.552,15.552,0,0,1-5.282-.755,16.628,16.628,0,0,1-4.527-2.076,12.467,12.467,0,0,1-3.773-4.527,14.2,14.2,0,0,1-1.319-6.224,11.39,11.39,0,0,1,1.319-5.66,11.992,11.992,0,0,1,3.018-4.339,11.041,11.041,0,0,1,4.527-2.64,13.742,13.742,0,0,1,5.66-.943,15.144,15.144,0,0,1,10.753,3.961,13.658,13.658,0,0,1,4.339,10,6.433,6.433,0,0,1-.19,1.7v.189H749.293a4.3,4.3,0,0,0,1.321,3.584,5.535,5.535,0,0,0,3.584,1.321,3.989,3.989,0,0,0,2.64-.755c.755-.566.943-.566.943-1.508l10,.187ZM749.1,409.088l9.243.189v-.189a4.03,4.03,0,0,0-1.51-3.206,4.145,4.145,0,0,0-3.206-1.132,3.978,3.978,0,0,0-3.018,1.132,3.583,3.583,0,0,0-1.51,2.831v.376Z" transform="translate(-516.123 -345.706)" fill="#222121" fill-rule="evenodd"/><path d="M668.671,397.317V371.474h9.621v3.961a14.253,14.253,0,0,1,3.961-3.584,9.191,9.191,0,0,1,4.716-1.132,9.05,9.05,0,0,1,6.6,2.263,9.911,9.911,0,0,1,3.206,7.735v16.6H686.592V381.848a4.6,4.6,0,0,0-1.319-2.452,4.482,4.482,0,0,0-2.264-.566,4.713,4.713,0,0,0-2.64.755,3.663,3.663,0,0,0-1.321,2.829v14.9Z" transform="translate(-554.532 -360.909)" fill="#222121" fill-rule="evenodd"/><path d="M702.941,425V399.158h9.621v3.961a14.256,14.256,0,0,1,3.961-3.584,9.191,9.191,0,0,1,4.716-1.132,9.046,9.046,0,0,1,6.6,2.263,9.907,9.907,0,0,1,3.208,7.735V425H720.862V409.532a4.589,4.589,0,0,0-1.321-2.452,4.472,4.472,0,0,0-2.263-.566,4.709,4.709,0,0,0-2.64.755,3.666,3.666,0,0,0-1.321,2.829V425Z" transform="translate(-535.794 -345.773)" fill="#222121" fill-rule="evenodd"/><path d="M677.765,364.987v35.276H668.71l-.189-3.4a7.731,7.731,0,0,1-3.018,3.019,9.688,9.688,0,0,1-4.716,1.131c-3.4,0-6.6-1.131-8.489-3.584-2.076-2.452-3.018-5.282-3.018-9.619s.942-7.735,3.018-10.376a10.264,10.264,0,0,1,8.111-3.584,14.721,14.721,0,0,1,4.15.755,18.07,18.07,0,0,1,3.206,2.452V365.176l10-.189Zm-13.959,16.789c-3.018-.189-4.339,2.64-4.339,5.847-.189,3.208,1.132,6.037,3.961,6.037,3.018,0,4.528-2.64,4.528-5.847s-1.133-5.848-4.15-6.037Z" transform="translate(-565.134 -364.043)" fill="#222121" fill-rule="evenodd"/><path d="M638.426,397.317V371.474h9.432v5.281c.378-2.074,2.263-3.961,3.206-4.9a6.191,6.191,0,0,1,3.961-1.132h1.887l.189,10.374a8.111,8.111,0,0,0-2.265-.376,6.1,6.1,0,0,0-4.15,1.319c-.942.566-1.886,1.7-1.886,4.15l-.189,11.131Z" transform="translate(-571.069 -360.909)" fill="#222121" fill-rule="evenodd"/><path d="M707.088,397.2V371.352h9.432v5.282c.377-2.076,2.263-3.963,3.206-4.906a6.193,6.193,0,0,1,3.961-1.131h1.886l.19,10.374a8.171,8.171,0,0,0-2.264-.376,6.093,6.093,0,0,0-4.15,1.319c-.944.566-1.887,1.7-1.887,4.15l-.189,11.131Z" transform="translate(-533.527 -360.976)" fill="#222121" fill-rule="evenodd"/><path d="M758.675,425.123V399.28h9.243v5.282c.377-2.076,2.264-3.963,3.207-4.906a6.2,6.2,0,0,1,3.963-1.131h1.885l.189,10.374a8.168,8.168,0,0,0-2.263-.376,6.091,6.091,0,0,0-4.15,1.319c-.944.566-1.887,1.7-1.887,4.15l-.188,11.131Z" transform="translate(-505.321 -345.706)" fill="#222121" fill-rule="evenodd"/><path d="M637.789,397.25a16.582,16.582,0,0,0-.377-3.206c-1.51,2.263-5.282,3.771-8.111,3.771s-6.226-.376-7.923-1.7a7.537,7.537,0,0,1-2.831-5.66c0-3.206.943-5.092,3.961-6.979,3.019-1.7,6.226-1.321,12.64-2.642a4.7,4.7,0,0,0,1.319-.753,2.227,2.227,0,0,0-.189-2.642,7.919,7.919,0,0,0-2.64-.566c-2.076,0-3.584.755-3.584,2.453h-9.81c0-3.208,1.132-5.282,3.584-6.6,2.453-1.508,6.6-1.885,10.753-1.885,4.527,0,7.545.377,9.619,2.074,1.887,1.51,2.831,3.585,2.831,7.356v12.263c0,1.131-.377,2.263.189,2.829.942.944,1.131,1.132,1.131,1.887Zm-.943-11.508c-2.076.943-4.15,1.132-5.66,1.7a2.4,2.4,0,0,0-1.885,2.452c-.189.755.189,1.132.755,1.51a2.224,2.224,0,0,0,2.263.566,3.893,3.893,0,0,0,3.018-.943,4.391,4.391,0,0,0,1.321-2.452,13.364,13.364,0,0,0,.189-2.83Z" transform="translate(-581.938 -360.843)" fill="#222121" fill-rule="evenodd"/><path d="M637.789,397.25a16.582,16.582,0,0,0-.377-3.206c-1.51,2.263-5.282,3.771-8.111,3.771s-6.226-.376-7.923-1.7a7.537,7.537,0,0,1-2.831-5.66c0-3.206.943-5.092,3.961-6.979,3.019-1.7,6.226-1.321,12.64-2.642a4.7,4.7,0,0,0,1.319-.753,2.227,2.227,0,0,0-.189-2.642,7.919,7.919,0,0,0-2.64-.566c-2.076,0-3.584.755-3.584,2.453h-9.81c0-3.208,1.132-5.282,3.584-6.6,2.453-1.508,6.6-1.885,10.753-1.885,4.527,0,7.545.377,9.619,2.074,1.887,1.51,2.831,3.585,2.831,7.356v12.263c0,1.131-.377,2.263.189,2.829.942.944,1.131,1.132,1.131,1.887Zm-.943-11.508c-2.076.943-4.15,1.132-5.66,1.7a2.4,2.4,0,0,0-1.885,2.452c-.189.755.189,1.132.755,1.51a2.224,2.224,0,0,0,2.263.566,3.893,3.893,0,0,0,3.018-.943,4.391,4.391,0,0,0,1.321-2.452,13.364,13.364,0,0,0,.189-2.83Z" transform="translate(-581.938 -360.843)" fill="#222121" fill-rule="evenodd"/><path d="M622.433,400.785V397.2a13.387,13.387,0,0,1-11.7,4.15c-4.9-.376-8.677-1.886-11.506-5.092a19.6,19.6,0,0,1-4.339-13.582c.189-5.848,1.7-9.621,4.9-13.016s7.545-5.094,12.827-5.282c4.339,0,8.677,1.132,11.318,3.206a15.477,15.477,0,0,1,5.848,9.81l-10.942.189A5.181,5.181,0,0,0,616.4,374a5.271,5.271,0,0,0-3.208-.943,5.53,5.53,0,0,0-5.281,3.018c-.943,1.7-1.321,3.019-1.321,6.792,0,3.4.377,5.658,1.321,7.356s3.4,2.642,5.66,2.642a6.062,6.062,0,0,0,3.4-.755,8.9,8.9,0,0,0,2.452-2.831l.189-.376h-5.094v-7.924h15.658v19.808Z" transform="translate(-594.879 -364.377)" fill="#222121" fill-rule="evenodd"/><path d="M730.045,424.734l-9.054-25.843,10.187.188,4.716,16.223,4.339-16.223h9.621l-8.3,25.655Z" transform="translate(-525.925 -345.506)" fill="#222121" fill-rule="evenodd"/><path d="M662.275,428.069l-.189-35.276h13.96a55.557,55.557,0,0,1,8.3.566,16.394,16.394,0,0,1,4.527,1.886,19.1,19.1,0,0,1,5.847,6.414c1.321,2.829,1.321,5.282,1.321,8.677a22.241,22.241,0,0,1-1.7,8.677,14.578,14.578,0,0,1-5.094,6.035,15.555,15.555,0,0,1-5.092,2.264,40.617,40.617,0,0,1-8.489.755Zm11.506-8.489,2.076.189c2.64,0,5.469-.755,6.79-2.453a13.414,13.414,0,0,0,1.887-7.168,12.5,12.5,0,0,0-1.51-6.792c-1.321-2.074-4.527-2.263-6.979-2.263h-2.264V419.58Z" transform="translate(-558.132 -348.84)" fill="#222121" fill-rule="evenodd"/></svg>