<svg xmlns="http://www.w3.org/2000/svg" xmlns:xlink="http://www.w3.org/1999/xlink" width="1920" height="1177.091" viewBox="0 0 1920 1177.091"><defs><linearGradient id="a" x1="-32.124" y1="-14.345" x2="40.466" y2="18.187" gradientUnits="objectBoundingBox"><stop offset="0" stop-color="#a8da23"/><stop offset="0.219" stop-color="#b8d36e"/><stop offset="0.43" stop-color="#c6ceb1"/><stop offset="0.528" stop-color="#ccc"/><stop offset="0.616" stop-color="#a1a1a1"/><stop offset="0.747" stop-color="#676767"/><stop offset="0.86" stop-color="#3d3d3d"/><stop offset="0.948" stop-color="#232323"/><stop offset="1" stop-color="#1a1a1a"/></linearGradient><linearGradient id="b" x1="-34.91" y1="-15.149" x2="39.279" y2="18.108" xlink:href="#a"/><linearGradient id="c" x1="-34.517" y1="-15.424" x2="39.671" y2="17.838" xlink:href="#a"/><linearGradient id="d" x1="-31.879" y1="-13.788" x2="38.777" y2="17.879" xlink:href="#a"/><linearGradient id="e" x1="-29.006" y1="-12.95" x2="39.603" y2="17.804" xlink:href="#a"/><linearGradient id="f" x1="-29.847" y1="-12.88" x2="39.787" y2="18.336" xlink:href="#a"/><linearGradient id="g" x1="-31.228" y1="-13.499" x2="38.505" y2="17.761" xlink:href="#a"/><linearGradient id="h" x1="-34.438" y1="-15.385" x2="36.711" y2="16.507" xlink:href="#a"/><linearGradient id="i" x1="-36.628" y1="-15.922" x2="37.658" y2="17.384" xlink:href="#a"/><linearGradient id="j" x1="-30.24" y1="-13.502" x2="37.69" y2="16.945" xlink:href="#a"/><linearGradient id="k" x1="-27.4" y1="-11.782" x2="39.545" y2="18.226" xlink:href="#a"/><linearGradient id="l" x1="-27.052" y1="-12.079" x2="40.561" y2="18.239" xlink:href="#a"/><linearGradient id="m" x1="-30.453" y1="-13.598" x2="35.644" y2="16.028" xlink:href="#a"/><linearGradient id="n" x1="-33.854" y1="-14.675" x2="35.308" y2="16.327" xlink:href="#a"/><linearGradient id="o" x1="-37.047" y1="-16.107" x2="35.288" y2="16.318" xlink:href="#a"/><linearGradient id="p" x1="-36.272" y1="-16.206" x2="35.327" y2="15.886" xlink:href="#a"/><linearGradient id="q" x1="-34.413" y1="-15.373" x2="36.211" y2="16.283" xlink:href="#a"/><linearGradient id="r" x1="-32.58" y1="-14.104" x2="36.213" y2="16.733" xlink:href="#a"/><linearGradient id="s" x1="-26.568" y1="-11.407" x2="35.01" y2="16.191" xlink:href="#a"/><linearGradient id="t" x1="-24.338" y1="-10.859" x2="36.183" y2="16.273" xlink:href="#a"/><linearGradient id="u" x1="-25.755" y1="-11.495" x2="41.859" y2="18.819" xlink:href="#a"/><linearGradient id="v" x1="-26.151" y1="-11.221" x2="41.454" y2="19.08" xlink:href="#a"/><linearGradient id="w" x1="-27.761" y1="-11.947" x2="40.608" y2="18.706" xlink:href="#a"/><linearGradient id="x" x1="-29.027" y1="-12.962" x2="40.161" y2="18.057" xlink:href="#a"/><linearGradient id="y" x1="-27.807" y1="-12.413" x2="35.713" y2="16.061" xlink:href="#a"/><linearGradient id="z" x1="-29.449" y1="-12.703" x2="33.664" y2="15.593" xlink:href="#a"/><linearGradient id="aa" x1="-35.496" y1="-15.868" x2="35.054" y2="15.773" xlink:href="#a"/><linearGradient id="ab" x1="-40.969" y1="-17.869" x2="36.103" y2="16.688" xlink:href="#a"/><linearGradient id="ac" x1="-37.976" y1="-16.97" x2="34.239" y2="15.398" xlink:href="#a"/><linearGradient id="ad" x1="-36.407" y1="-15.822" x2="31.715" y2="14.719" xlink:href="#a"/><linearGradient id="ae" x1="-36.293" y1="-16.219" x2="32.357" y2="14.558" xlink:href="#a"/><linearGradient id="af" x1="-35.616" y1="-15.467" x2="33.5" y2="15.518" xlink:href="#a"/><linearGradient id="ag" x1="-31.391" y1="-14.022" x2="35.749" y2="16.079" xlink:href="#a"/><linearGradient id="ah" x1="-29.774" y1="-12.845" x2="35.776" y2="16.535" xlink:href="#a"/><linearGradient id="ai" x1="-25.108" y1="-11.206" x2="34.057" y2="15.322" xlink:href="#a"/><linearGradient id="aj" x1="-21.736" y1="-9.243" x2="34.094" y2="15.782" xlink:href="#a"/><linearGradient id="ak" x1="-21.38" y1="-9.529" x2="37.974" y2="17.069" xlink:href="#a"/><linearGradient id="al" x1="-23.871" y1="-10.199" x2="41.088" y2="18.916" xlink:href="#a"/><linearGradient id="am" x1="-23.914" y1="-10.668" x2="42.835" y2="19.253" xlink:href="#a"/><linearGradient id="an" x1="-23.272" y1="-9.931" x2="40.646" y2="18.718" xlink:href="#a"/><linearGradient id="ao" x1="-25.483" y1="-11.376" x2="42.009" y2="18.889" xlink:href="#a"/><linearGradient id="ap" x1="-27.419" y1="-11.795" x2="37.096" y2="17.134" xlink:href="#a"/><linearGradient id="aq" x1="-28.443" y1="-12.251" x2="35.594" y2="16.456" xlink:href="#a"/><linearGradient id="ar" x1="-32.039" y1="-14.311" x2="34.705" y2="15.61" xlink:href="#a"/><linearGradient id="as" x1="-37.002" y1="-16.082" x2="35.714" y2="16.505" xlink:href="#a"/><linearGradient id="at" x1="-48.359" y1="-21.628" x2="40.06" y2="18.011" xlink:href="#a"/><linearGradient id="au" x1="-40.117" y1="-17.489" x2="32.315" y2="14.99" xlink:href="#a"/><linearGradient id="av" x1="-36.338" y1="-16.24" x2="30.035" y2="13.518" xlink:href="#a"/><linearGradient id="aw" x1="-35.843" y1="-15.565" x2="28.54" y2="13.292" xlink:href="#a"/><linearGradient id="ax" x1="-34.976" y1="-15.625" x2="33.675" y2="15.145" xlink:href="#a"/><linearGradient id="ay" x1="-34.577" y1="-14.998" x2="35.113" y2="16.238" xlink:href="#a"/><linearGradient id="az" x1="-32.655" y1="-14.583" x2="40.042" y2="17.997" xlink:href="#a"/><linearGradient id="ba" x1="-23.507" y1="-10.039" x2="33.558" y2="15.545" xlink:href="#a"/><linearGradient id="bb" x1="-20.905" y1="-9.321" x2="33.866" y2="15.235" xlink:href="#a"/><linearGradient id="bc" x1="-21.039" y1="-8.93" x2="39.421" y2="18.169" xlink:href="#a"/><linearGradient id="bd" x1="-22.894" y1="-10.216" x2="44.599" y2="20.053" xlink:href="#a"/><linearGradient id="be" x1="-23.521" y1="-10.045" x2="44.625" y2="20.506" xlink:href="#a"/><linearGradient id="bf" x1="-20.004" y1="-8.915" x2="39.802" y2="17.893" xlink:href="#a"/><linearGradient id="bg" x1="-26.136" y1="-11.217" x2="42.01" y2="19.333" xlink:href="#a"/><linearGradient id="bh" x1="-26.602" y1="-11.875" x2="40.458" y2="18.19" xlink:href="#a"/><linearGradient id="bi" x1="-31.261" y1="-13.961" x2="37.029" y2="16.65" xlink:href="#a"/><linearGradient id="bj" x1="-33.678" y1="-14.602" x2="35.594" y2="16.461" xlink:href="#a"/><linearGradient id="bk" x1="-45.095" y1="-20.159" x2="40.932" y2="18.397" xlink:href="#a"/><linearGradient id="bl" x1="-56.457" y1="-24.793" x2="45.895" y2="21.061" xlink:href="#a"/><linearGradient id="bm" x1="-51.974" y1="-22.803" x2="38.61" y2="17.811" xlink:href="#a"/><linearGradient id="bn" x1="-43.624" y1="-19.501" x2="33.155" y2="14.912" xlink:href="#a"/><linearGradient id="bo" x1="-34.766" y1="-15.09" x2="25.63" y2="11.993" xlink:href="#a"/><linearGradient id="bp" x1="-32.548" y1="-14.541" x2="24.731" y2="11.14" xlink:href="#a"/><linearGradient id="bq" x1="-34.969" y1="-15.625" x2="28.576" y2="12.862" xlink:href="#a"/><linearGradient id="br" x1="-36.307" y1="-15.78" x2="31.213" y2="14.496" xlink:href="#a"/><linearGradient id="bs" x1="-37.716" y1="-16.856" x2="39.032" y2="17.549" xlink:href="#a"/><linearGradient id="bt" x1="-39.694" y1="-17.295" x2="43.422" y2="19.967" xlink:href="#a"/><linearGradient id="bu" x1="-34.971" y1="-15.175" x2="45.281" y2="20.795" xlink:href="#a"/><linearGradient id="bv" x1="-27.317" y1="-12.193" x2="39.855" y2="17.917" xlink:href="#a"/><linearGradient id="bw" x1="-21.873" y1="-9.31" x2="37.181" y2="17.176" xlink:href="#a"/><linearGradient id="bx" x1="-21.262" y1="-9.48" x2="40.98" y2="18.423" xlink:href="#a"/><linearGradient id="by" x1="-21.491" y1="-9.583" x2="45.677" y2="20.529" xlink:href="#a"/><linearGradient id="bz" x1="-22.475" y1="-9.575" x2="46.464" y2="21.327" xlink:href="#a"/><linearGradient id="ca" x1="-20.44" y1="-9.109" x2="44.2" y2="19.862" xlink:href="#a"/><linearGradient id="cb" x1="-18.682" y1="-7.874" x2="39.34" y2="18.134" xlink:href="#a"/><linearGradient id="cc" x1="-20.097" y1="-8.51" x2="38.799" y2="17.894" xlink:href="#a"/><linearGradient id="cd" x1="-23.299" y1="-10.393" x2="42.376" y2="19.048" xlink:href="#a"/><linearGradient id="ce" x1="-27.959" y1="-12.033" x2="41.454" y2="19.082" xlink:href="#a"/><linearGradient id="cf" x1="-28.7" y1="-12.809" x2="40.26" y2="18.093" xlink:href="#a"/><linearGradient id="cg" x1="-36.836" y1="-16.465" x2="47.398" y2="21.304" xlink:href="#a"/><linearGradient id="ch" x1="-35.831" y1="-15.566" x2="41.383" y2="19.055" xlink:href="#a"/><linearGradient id="ci" x1="-41.02" y1="-18.343" x2="40.816" y2="18.354" xlink:href="#a"/><linearGradient id="cj" x1="-50.266" y1="-22.038" x2="44.774" y2="20.576" xlink:href="#a"/><linearGradient id="ck" x1="-83.636" y1="-37.422" x2="63.239" y2="28.387" xlink:href="#a"/><linearGradient id="cl" x1="-99.056" y1="-43.882" x2="67.626" y2="30.8" xlink:href="#a"/><linearGradient id="cm" x1="-66.423" y1="-29.732" x2="46.08" y2="20.713" xlink:href="#a"/><linearGradient id="cn" x1="-41.594" y1="-18.144" x2="28.263" y2="13.169" xlink:href="#a"/><linearGradient id="co" x1="-35.144" y1="-15.705" x2="24.63" y2="11.094" xlink:href="#a"/><linearGradient id="cp" x1="-30.195" y1="-13.033" x2="20.357" y2="9.624" xlink:href="#a"/><linearGradient id="cq" x1="-30.185" y1="-13.482" x2="21.044" y2="9.487" xlink:href="#a"/><linearGradient id="cr" x1="-33.138" y1="-14.356" x2="24.123" y2="11.314" xlink:href="#a"/><linearGradient id="cs" x1="-38.811" y1="-17.341" x2="34.059" y2="15.315" xlink:href="#a"/><linearGradient id="ct" x1="-43.374" y1="-18.941" x2="40.152" y2="18.497" xlink:href="#a"/><linearGradient id="cu" x1="-54.325" y1="-24.311" x2="59.949" y2="26.937" xlink:href="#a"/><linearGradient id="cv" x1="-71.969" y1="-31.786" x2="84.53" y2="38.421" xlink:href="#a"/><linearGradient id="cw" x1="-54.263" y1="-24.263" x2="70.695" y2="31.73" xlink:href="#a"/><linearGradient id="cx" x1="-31.796" y1="-13.752" x2="48.885" y2="22.413" xlink:href="#a"/><linearGradient id="cy" x1="-26.319" y1="-11.748" x2="45.648" y2="20.517" xlink:href="#a"/><linearGradient id="cz" x1="-24.294" y1="-10.39" x2="49.416" y2="22.651" xlink:href="#a"/><linearGradient id="da" x1="-25.115" y1="-11.204" x2="57.811" y2="25.961" xlink:href="#a"/><linearGradient id="db" x1="-23.85" y1="-10.188" x2="53.772" y2="24.599" xlink:href="#a"/><linearGradient id="dc" x1="-21.882" y1="-9.757" x2="51.455" y2="23.116" xlink:href="#a"/><linearGradient id="dd" x1="-20.479" y1="-8.68" x2="47.013" y2="21.575" xlink:href="#a"/><linearGradient id="de" x1="-14.737" y1="-6.555" x2="35.979" y2="16.182" xlink:href="#a"/><linearGradient id="df" x1="-13.57" y1="-5.583" x2="31.932" y2="14.814" xlink:href="#a"/><linearGradient id="dg" x1="-15.71" y1="-6.991" x2="35.005" y2="15.744" xlink:href="#a"/><linearGradient id="dh" x1="-24.364" y1="-10.425" x2="43.128" y2="19.839" xlink:href="#a"/><linearGradient id="di" x1="-27.176" y1="-12.132" x2="45.293" y2="20.357" xlink:href="#a"/><linearGradient id="dj" x1="-33.901" y1="-14.695" x2="46.34" y2="21.271" xlink:href="#a"/><linearGradient id="dk" x1="-51.514" y1="-22.603" x2="64.851" y2="29.585" xlink:href="#a"/><linearGradient id="dl" x1="-48.155" y1="-21.538" x2="52.085" y2="23.403" xlink:href="#a"/><linearGradient id="dm" x1="-51.803" y1="-22.724" x2="50.457" y2="23.12" xlink:href="#a"/><linearGradient id="dn" x1="-78.602" y1="-35.182" x2="65.141" y2="29.252" xlink:href="#a"/><linearGradient id="do" x1="-108.118" y1="-47.978" x2="80.914" y2="36.78" xlink:href="#a"/><linearGradient id="dp" x1="-147.175" y1="-65.834" x2="92.883" y2="41.634" xlink:href="#a"/><linearGradient id="dq" x1="-63.745" y1="-28.087" x2="39.767" y2="18.334" xlink:href="#a"/><linearGradient id="dr" x1="-45.079" y1="-20.16" x2="28.881" y2="13.001" xlink:href="#a"/><linearGradient id="ds" x1="-32.664" y1="-14.146" x2="20.3" y2="9.602" xlink:href="#a"/><linearGradient id="dt" x1="-29.426" y1="-13.14" x2="19.006" y2="8.572" xlink:href="#a"/><linearGradient id="du" x1="-28.218" y1="-12.148" x2="17.351" y2="8.278" xlink:href="#a"/><linearGradient id="dv" x1="-33.42" y1="-14.928" x2="25.027" y2="11.269" xlink:href="#a"/><linearGradient id="dw" x1="-38.622" y1="-16.815" x2="30.308" y2="14.087" xlink:href="#a"/><linearGradient id="dx" x1="-54.911" y1="-24.571" x2="51.381" y2="23.092" xlink:href="#a"/><linearGradient id="dy" x1="-67.106" y1="-29.562" x2="66.762" y2="30.408" xlink:href="#a"/><linearGradient id="dz" x1="-158.759" y1="-71.194" x2="185.978" y2="83.511" xlink:href="#a"/><linearGradient id="ea" x1="-79.557" y1="-35.186" x2="110.554" y2="50.091" xlink:href="#a"/><linearGradient id="eb" x1="-55.841" y1="-24.966" x2="86.152" y2="38.65" xlink:href="#a"/><linearGradient id="ec" x1="-35.829" y1="-15.558" x2="65.651" y2="29.923" xlink:href="#a"/><linearGradient id="ed" x1="-32.981" y1="-14.73" x2="67.894" y2="30.481" xlink:href="#a"/><linearGradient id="ee" x1="-36.637" y1="-15.921" x2="89.969" y2="40.825" xlink:href="#a"/><linearGradient id="ef" x1="-25.569" y1="-11.409" x2="65.379" y2="29.357" xlink:href="#a"/><linearGradient id="eg" x1="-23.804" y1="-10.17" x2="59.722" y2="27.271" xlink:href="#a"/><linearGradient id="eh" x1="-16.809" y1="-7.485" x2="44.558" y2="20.03" xlink:href="#a"/><linearGradient id="ei" x1="-14.182" y1="-5.858" x2="36.534" y2="16.878" xlink:href="#a"/><linearGradient id="ej" x1="-9.915" y1="-4.394" x2="27.778" y2="12.506" xlink:href="#a"/><linearGradient id="ek" x1="-16.334" y1="-6.822" x2="35.02" y2="16.198" xlink:href="#a"/><linearGradient id="el" x1="-19.989" y1="-8.908" x2="40.352" y2="18.138" xlink:href="#a"/><linearGradient id="em" x1="-30.717" y1="-13.271" x2="49.946" y2="22.892" xlink:href="#a"/><linearGradient id="en" x1="-35.002" y1="-15.638" x2="53.382" y2="23.98" xlink:href="#a"/><linearGradient id="eo" x1="-76.166" y1="-34.09" x2="89.13" y2="40.005" xlink:href="#a"/><linearGradient id="ep" x1="-76.118" y1="-33.643" x2="80.837" y2="36.759" xlink:href="#a"/><linearGradient id="eq" x1="-89.181" y1="-39.891" x2="80.654" y2="36.176" xlink:href="#a"/><linearGradient id="er" x1="-113.144" y1="-50.258" x2="92.734" y2="42.102" xlink:href="#a"/><linearGradient id="es" x1="-185.948" y1="-83.366" x2="128.525" y2="57.709" xlink:href="#a"/><linearGradient id="et" x1="-216.178" y1="-96.534" x2="135.734" y2="61.425" xlink:href="#a"/><linearGradient id="eu" x1="-143.432" y1="-63.844" x2="81.954" y2="37.265" xlink:href="#a"/><linearGradient id="ev" x1="-90.12" y1="-40.357" x2="52.142" y2="23.431" xlink:href="#a"/><linearGradient id="ew" x1="-42.361" y1="-18.489" x2="24.148" y2="11.325" xlink:href="#a"/><linearGradient id="ex" x1="-35.899" y1="-16.04" x2="21.169" y2="9.54" xlink:href="#a"/><linearGradient id="ey" x1="-28.321" y1="-12.195" x2="16.051" y2="7.695" xlink:href="#a"/><linearGradient id="ez" x1="-25.81" y1="-11.519" x2="15.329" y2="6.924" xlink:href="#a"/><linearGradient id="fa" x1="-27.852" y1="-12.435" x2="17.809" y2="8.036" xlink:href="#a"/><linearGradient id="fb" x1="-32.514" y1="-14.074" x2="21.59" y2="10.177" xlink:href="#a"/><linearGradient id="fc" x1="-45.975" y1="-20.553" x2="36.667" y2="16.485" xlink:href="#a"/><linearGradient id="fd" x1="-60.085" y1="-26.427" x2="50.657" y2="23.202" xlink:href="#a"/><linearGradient id="fe" x1="-122.878" y1="-55.049" x2="122.22" y2="54.857" xlink:href="#a"/><linearGradient id="ff" x1="-215.491" y1="-96.197" x2="230.228" y2="103.81" xlink:href="#a"/><linearGradient id="fg" x1="-342.75" y1="-152.867" x2="432.659" y2="194.098" xlink:href="#a"/><linearGradient id="fh" x1="-223.323" y1="-100.227" x2="308.933" y2="138.771" xlink:href="#a"/><linearGradient id="fi" x1="-94.309" y1="-41.772" x2="155.773" y2="70.321" xlink:href="#a"/><linearGradient id="fj" x1="-69.262" y1="-31.005" x2="126.944" y2="56.973" xlink:href="#a"/><linearGradient id="fk" x1="-54.878" y1="-24.099" x2="120.751" y2="54.626" xlink:href="#a"/><linearGradient id="fl" x1="-56.173" y1="-25.139" x2="138.349" y2="62.093" xlink:href="#a"/><linearGradient id="fm" x1="-43.895" y1="-19.628" x2="121.376" y2="54.468" xlink:href="#a"/><linearGradient id="fn" x1="-34.587" y1="-15.001" x2="94.99" y2="43.073" xlink:href="#a"/><linearGradient id="fo" x1="-21.384" y1="-9.532" x2="61.549" y2="27.636" xlink:href="#a"/><linearGradient id="fp" x1="-17.665" y1="-7.42" x2="49.827" y2="22.839" xlink:href="#a"/><linearGradient id="fq" x1="-10.498" y1="-4.654" x2="32.153" y2="14.464" xlink:href="#a"/><linearGradient id="fr" x1="-9.17" y1="-3.611" x2="26.792" y2="12.509" xlink:href="#a"/><linearGradient id="fs" x1="-9.663" y1="-3.831" x2="25.597" y2="11.973" xlink:href="#a"/><linearGradient id="ft" x1="-12.163" y1="-5.401" x2="30.581" y2="13.762" xlink:href="#a"/><linearGradient id="fu" x1="-22.201" y1="-9.453" x2="43.41" y2="19.961" xlink:href="#a"/><linearGradient id="fv" x1="-27.54" y1="-12.294" x2="50.43" y2="22.659" xlink:href="#a"/><linearGradient id="fw" x1="-43.855" y1="-19.153" x2="65.549" y2="29.874" xlink:href="#a"/><linearGradient id="fx" x1="-55.504" y1="-24.824" x2="77.28" y2="34.688" xlink:href="#a"/><linearGradient id="fy" x1="-161.892" y1="-72.579" x2="205.436" y2="92.217" xlink:href="#a"/><linearGradient id="fz" x1="-145.173" y1="-64.578" x2="168.174" y2="75.888" xlink:href="#a"/><linearGradient id="ga" x1="-147.598" y1="-66.167" x2="145.012" y2="65.11" xlink:href="#a"/><linearGradient id="gb" x1="-154.334" y1="-68.741" x2="138.276" y2="62.537" xlink:href="#a"/><linearGradient id="gc" x1="-226.456" y1="-101.381" x2="171.335" y2="76.796" xlink:href="#a"/><linearGradient id="gd" x1="-268.498" y1="-119.658" x2="185.079" y2="83.327" xlink:href="#a"/><linearGradient id="ge" x1="-345.238" y1="-154.427" x2="199.316" y2="89.238" xlink:href="#a"/><linearGradient id="gf" x1="-323.843" y1="-144.94" x2="169.667" y2="76.699" xlink:href="#a"/><linearGradient id="gg" x1="-192.105" y1="-85.978" x2="101.037" y2="45.3" xlink:href="#a"/><linearGradient id="gh" x1="-82.007" y1="-36.27" x2="42.634" y2="19.616" xlink:href="#a"/><linearGradient id="gi" x1="-55.378" y1="-24.779" x2="29.495" y2="13.277" xlink:href="#a"/><linearGradient id="gj" x1="-36.226" y1="-15.74" x2="18.779" y2="8.919" xlink:href="#a"/><linearGradient id="gk" x1="-30.097" y1="-13.441" x2="16.306" y2="7.362" xlink:href="#a"/><linearGradient id="gl" x1="-24.092" y1="-10.297" x2="12.439" y2="6.075" xlink:href="#a"/><linearGradient id="gm" x1="-22.724" y1="-10.137" x2="12.408" y2="5.615" xlink:href="#a"/><linearGradient id="gn" x1="-25.691" y1="-11.015" x2="14.391" y2="6.951" xlink:href="#a"/><linearGradient id="go" x1="-36.904" y1="-16.498" x2="25.116" y2="11.315" xlink:href="#a"/><linearGradient id="gp" x1="-47.479" y1="-20.783" x2="33.904" y2="15.698" xlink:href="#a"/><linearGradient id="gq" x1="-90.697" y1="-40.617" x2="76.751" y2="34.466" xlink:href="#a"/><linearGradient id="gr" x1="-151.073" y1="-67.261" x2="136.774" y2="61.848" xlink:href="#a"/><linearGradient id="gs" x1="-727.699" y1="-325.671" x2="773.724" y2="346.377" xlink:href="#a"/><linearGradient id="gt" x1="-4017.739" y1="-1791.544" x2="4237.273" y2="1890.461" xlink:href="#a"/><linearGradient id="gu" x1="-2302.748" y1="-1056.045" x2="2891.477" y2="1326.138" xlink:href="#a"/><linearGradient id="gv" x1="-606.966" y1="-272.088" x2="908.564" y2="408.536" xlink:href="#a"/><linearGradient id="gw" x1="-323.333" y1="-145.171" x2="531.126" y2="238.601" xlink:href="#a"/><linearGradient id="gx" x1="-147.552" y1="-65.839" x2="291.759" y2="131.674" xlink:href="#a"/><linearGradient id="gy" x1="-125.797" y1="-56.43" x2="275.809" y2="123.885" xlink:href="#a"/><linearGradient id="gz" x1="-134.28" y1="-59.774" x2="359.874" y2="162.035" xlink:href="#a"/><linearGradient id="ha" x1="-175.777" y1="-78.658" x2="527.833" y2="236.408" xlink:href="#a"/><linearGradient id="hb" x1="-88.21" y1="-39.037" x2="266.02" y2="119.734" xlink:href="#a"/><linearGradient id="hc" x1="-35.341" y1="-15.794" x2="110.4" y2="49.552" xlink:href="#a"/><linearGradient id="hd" x1="-14.488" y1="-6.443" x2="47.853" y2="21.504" xlink:href="#a"/><linearGradient id="he" x1="-11.251" y1="-4.543" x2="36.106" y2="16.685" xlink:href="#a"/><linearGradient id="hf" x1="-7.172" y1="-3.163" x2="25.659" y2="11.553" xlink:href="#a"/><linearGradient id="hg" x1="-6.804" y1="-2.55" x2="22.665" y2="10.66" xlink:href="#a"/><linearGradient id="hh" x1="-7.165" y1="-3.16" x2="23.218" y2="10.459" xlink:href="#a"/><linearGradient id="hi" x1="-12.968" y1="-5.313" x2="31.034" y2="14.411" xlink:href="#a"/><linearGradient id="hj" x1="-17.979" y1="-8.008" x2="40.332" y2="18.132" xlink:href="#a"/><linearGradient id="hk" x1="-34.373" y1="-14.908" x2="61.423" y2="28.033" xlink:href="#a"/><linearGradient id="hl" x1="-44.024" y1="-19.684" x2="73.196" y2="32.865" xlink:href="#a"/><linearGradient id="hm" x1="-92.838" y1="-41.122" x2="127.548" y2="57.684" xlink:href="#a"/><linearGradient id="hn" x1="-397.175" y1="-177.133" x2="502.761" y2="225.356" xlink:href="#a"/><linearGradient id="ho" x1="-275.552" y1="-123.749" x2="294.788" y2="132.493" xlink:href="#a"/><linearGradient id="hp" x1="-288.222" y1="-128.941" x2="282.1" y2="127.191" xlink:href="#a"/><linearGradient id="hq" x1="-312.168" y1="-140.2" x2="258.171" y2="116.042" xlink:href="#a"/><linearGradient id="hr" x1="-359.457" y1="-160.992" x2="271.597" y2="122.519" xlink:href="#a"/><linearGradient id="hs" x1="-430.734" y1="-193.113" x2="273.331" y2="122.628" xlink:href="#a"/><linearGradient id="ht" x1="-500.803" y1="-224.227" x2="289.238" y2="130.29" xlink:href="#a"/><linearGradient id="hu" x1="-503.194" y1="-225.948" x2="241.131" y2="108.35" xlink:href="#a"/><linearGradient id="hv" x1="-171.885" y1="-76.569" x2="81.555" y2="37.067" xlink:href="#a"/><linearGradient id="hw" x1="-121.368" y1="-54.362" x2="58.105" y2="26.102" xlink:href="#a"/><linearGradient id="hx" x1="-61.003" y1="-26.842" x2="28.755" y2="13.388" xlink:href="#a"/><linearGradient id="hy" x1="-46.095" y1="-20.607" x2="22.406" y2="10.094" xlink:href="#a"/><linearGradient id="hz" x1="-29.901" y1="-12.903" x2="14.077" y2="6.81" xlink:href="#a"/><linearGradient id="ia" x1="-25.124" y1="-11.21" x2="12.52" y2="5.664" xlink:href="#a"/><linearGradient id="ib" x1="-22.896" y1="-9.763" x2="10.707" y2="5.299" xlink:href="#a"/><linearGradient id="ic" x1="-27.855" y1="-12.435" x2="16.227" y2="7.326" xlink:href="#a"/><linearGradient id="id" x1="-35.937" y1="-15.611" x2="21.677" y2="10.218" xlink:href="#a"/><linearGradient id="ie" x1="-70.633" y1="-31.61" x2="50.799" y2="22.823" xlink:href="#a"/><linearGradient id="if" x1="-106.291" y1="-47.153" x2="81.488" y2="37.033" xlink:href="#a"/><linearGradient id="ig" x1="-350.942" y1="-157.304" x2="316.561" y2="141.991" xlink:href="#a"/><linearGradient id="ih" x1="-990.145" y1="-441.135" x2="965.013" y2="430.926" xlink:href="#a"/><linearGradient id="ii" x1="-4115.584" y1="-1807.641" x2="4116.005" y2="1807.914" xlink:href="#a"/><linearGradient id="ij" x1="-1194.945" y1="-538.788" x2="2134.542" y2="963.836" xlink:href="#a"/><linearGradient id="ik" x1="-593.619" y1="-265.873" x2="1167.043" y2="522.855" xlink:href="#a"/><linearGradient id="il" x1="-373.443" y1="-166.61" x2="894.316" y2="400.693" xlink:href="#a"/><linearGradient id="im" x1="-373.517" y1="-167.196" x2="995.483" y2="445.797" xlink:href="#a"/><linearGradient id="in" x1="-881.747" y1="-394.476" x2="2943.49" y2="1319.026" xlink:href="#a"/><linearGradient id="io" x1="-107.662" y1="-48.141" x2="367.018" y2="164.341" xlink:href="#a"/><linearGradient id="ip" x1="-61.912" y1="-27.255" x2="211.678" y2="95.395" xlink:href="#a"/><linearGradient id="iq" x1="-24.809" y1="-11.064" x2="88.709" y2="39.797" xlink:href="#a"/><linearGradient id="ir" x1="-18.063" y1="-7.601" x2="63.773" y2="29.101" xlink:href="#a"/><linearGradient id="is" x1="-9.487" y1="-4.201" x2="36.626" y2="16.468" xlink:href="#a"/><linearGradient id="it" x1="-8.053" y1="-3.11" x2="29.641" y2="13.789" xlink:href="#a"/><linearGradient id="iu" x1="-5.759" y1="-2.53" x2="23.985" y2="10.805" xlink:href="#a"/><linearGradient id="iv" x1="-7.637" y1="-2.924" x2="22.865" y2="10.751" xlink:href="#a"/><linearGradient id="iw" x1="-9.379" y1="-4.153" x2="26.843" y2="12.085" xlink:href="#a"/><linearGradient id="ix" x1="-20.394" y1="-8.643" x2="44.184" y2="20.308" xlink:href="#a"/><linearGradient id="iy" x1="-30.868" y1="-13.789" x2="62.043" y2="27.871" xlink:href="#a"/><linearGradient id="iz" x1="-64.15" y1="-28.255" x2="105.024" y2="47.576" xlink:href="#a"/><linearGradient id="ja" x1="-103.23" y1="-46.212" x2="156.013" y2="69.97" xlink:href="#a"/><linearGradient id="jb" x1="-444.205" y1="-198.548" x2="192.176" y2="86.614" xlink:href="#a"/><linearGradient id="jc" x1="-262.9" y1="-117.792" x2="113.973" y2="51.14" xlink:href="#a"/><linearGradient id="jd" x1="-144.37" y1="-64.196" x2="61.733" y2="28.164" xlink:href="#a"/><linearGradient id="je" x1="-104.293" y1="-46.685" x2="45.14" y2="20.281" xlink:href="#a"/><linearGradient id="jf" x1="-50.83" y1="-22.286" x2="21.635" y2="10.199" xlink:href="#a"/><linearGradient id="jg" x1="-37.111" y1="-16.585" x2="16.485" y2="7.442" xlink:href="#a"/><linearGradient id="jh" x1="-25.324" y1="-10.85" x2="10.796" y2="5.339" xlink:href="#a"/><linearGradient id="ji" x1="-22.566" y1="-10.063" x2="10.279" y2="4.659" xlink:href="#a"/><linearGradient id="jj" x1="-24.351" y1="-10.866" x2="11.992" y2="5.428" xlink:href="#a"/><linearGradient id="jk" x1="-28.402" y1="-12.232" x2="14.38" y2="6.946" xlink:href="#a"/><linearGradient id="jl" x1="-48.869" y1="-21.863" x2="29.942" y2="13.478" xlink:href="#a"/><linearGradient id="jm" x1="-78.218" y1="-34.576" x2="50.622" y2="23.2" xlink:href="#a"/><linearGradient id="jn" x1="-238.809" y1="-107.165" x2="182.519" y2="81.996" xlink:href="#a"/><linearGradient id="jo" x1="-487.689" y1="-218.395" x2="402.315" y2="181.076" xlink:href="#a"/><linearGradient id="jp" x1="-11263.119" y1="-4648.491" x2="-2921.864" y2="-1205.842" xlink:href="#a"/><linearGradient id="jq" x1="-5884.891" y1="-2774.477" x2="2162.002" y2="1019.969" xlink:href="#a"/><linearGradient id="jr" x1="-4135.048" y1="-1844.195" x2="4040.569" y2="1802.161" xlink:href="#a"/><linearGradient id="js" x1="-4479.078" y1="-2003.678" x2="3714.554" y2="1662.591" xlink:href="#a"/><linearGradient id="jt" x1="-4018.595" y1="-2082.573" x2="4019.027" y2="2082.743" xlink:href="#a"/><linearGradient id="ju" x1="-1461.19" y1="-673.158" x2="5527.724" y2="2546.759" xlink:href="#a"/><linearGradient id="jv" x1="-338.176" y1="-151.043" x2="1288.393" y2="577.854" xlink:href="#a"/><linearGradient id="jw" x1="-71.819" y1="-32.134" x2="280.644" y2="125.823" xlink:href="#a"/><linearGradient id="jx" x1="-40.698" y1="-17.757" x2="159.358" y2="71.986" xlink:href="#a"/><linearGradient id="jy" x1="-17.438" y1="-7.764" x2="72.299" y2="32.457" xlink:href="#a"/><linearGradient id="jz" x1="-12.692" y1="-5.19" x2="51.625" y2="23.645" xlink:href="#a"/><linearGradient id="ka" x1="-7.242" y1="-3.195" x2="32.811" y2="14.76" xlink:href="#a"/><linearGradient id="kb" x1="-6.697" y1="-2.502" x2="28.435" y2="13.247" xlink:href="#a"/><linearGradient id="kc" x1="-5.956" y1="-2.17" x2="22.663" y2="10.659" xlink:href="#a"/><linearGradient id="kd" x1="-6.088" y1="-2.678" x2="22.638" y2="10.201" xlink:href="#a"/><linearGradient id="ke" x1="-10.627" y1="-4.264" x2="28.521" y2="13.286" xlink:href="#a"/><linearGradient id="kf" x1="-15.116" y1="-6.725" x2="37.998" y2="17.088" xlink:href="#a"/><linearGradient id="kg" x1="-40.577" y1="-17.692" x2="79.874" y2="36.31" xlink:href="#a"/><linearGradient id="kh" x1="-69.369" y1="-31.02" x2="125.723" y2="56.367" xlink:href="#a"/><linearGradient id="ki" x1="-257.431" y1="-115.294" x2="386.907" y2="174.533" xlink:href="#a"/><linearGradient id="kj" x1="-580.847" y1="-260.23" x2="803.117" y2="359.935" xlink:href="#a"/><linearGradient id="kk" x1="-324.908" y1="-145.219" x2="126.132" y2="57.069" xlink:href="#a"/><linearGradient id="kl" x1="-250.862" y1="-112.303" x2="97.592" y2="43.761" xlink:href="#a"/><linearGradient id="km" x1="-129.374" y1="-57.468" x2="49.618" y2="22.732" xlink:href="#a"/><linearGradient id="kn" x1="-81.605" y1="-36.52" x2="31.913" y2="14.354" xlink:href="#a"/><linearGradient id="ko" x1="-38.399" y1="-16.717" x2="14.739" y2="7.109" xlink:href="#a"/><linearGradient id="kp" x1="-28.515" y1="-12.731" x2="11.629" y2="5.265" xlink:href="#a"/><linearGradient id="kq" x1="-23.351" y1="-9.967" x2="8.957" y2="4.515" xlink:href="#a"/><linearGradient id="kr" x1="-24.599" y1="-10.975" x2="10.013" y2="4.54" xlink:href="#a"/><linearGradient id="ks" x1="-26.032" y1="-11.17" x2="10.914" y2="5.393" xlink:href="#a"/><linearGradient id="kt" x1="-36.656" y1="-16.382" x2="19.061" y2="8.597" xlink:href="#a"/><linearGradient id="ku" x1="-52.005" y1="-22.814" x2="28.304" y2="13.189" xlink:href="#a"/><linearGradient id="kv" x1="-159.966" y1="-71.631" x2="103.377" y2="46.376" xlink:href="#a"/><linearGradient id="kw" x1="-340.844" y1="-152.56" x2="237.353" y2="107.086" xlink:href="#a"/><linearGradient id="kx" x1="-2590.144" y1="-1166.064" x2="2125.995" y2="957.198" xlink:href="#a"/><linearGradient id="ky" x1="-4239.947" y1="-1804.144" x2="4239.501" y2="1804.976" xlink:href="#a"/><linearGradient id="kz" x1="-559.807" y1="-249.947" x2="2443.038" y2="1091.076" xlink:href="#a"/><linearGradient id="la" x1="-202.512" y1="-90.153" x2="890.252" y2="399.015" xlink:href="#a"/><linearGradient id="lb" x1="-46.182" y1="-20.653" x2="209.72" y2="94.074" xlink:href="#a"/><linearGradient id="lc" x1="-28.368" y1="-12.209" x2="128.738" y2="58.175" xlink:href="#a"/><linearGradient id="ld" x1="-12.923" y1="-5.741" x2="62.956" y2="28.271" xlink:href="#a"/><linearGradient id="le" x1="-10.21" y1="-4.077" x2="48.324" y2="22.161" xlink:href="#a"/><linearGradient id="lf" x1="-6.798" y1="-2.996" x2="35.843" y2="16.121" xlink:href="#a"/><linearGradient id="lg" x1="-6.711" y1="-2.508" x2="33.002" y2="15.292" xlink:href="#a"/><linearGradient id="lh" x1="-5.364" y1="-2.353" x2="25.779" y2="11.608" xlink:href="#a"/><linearGradient id="li" x1="-6.824" y1="-2.559" x2="23.142" y2="10.874" xlink:href="#a"/><linearGradient id="lj" x1="-8.294" y1="-3.666" x2="26.877" y2="12.1" xlink:href="#a"/><linearGradient id="lk" x1="-19.475" y1="-8.234" x2="46.901" y2="21.533" xlink:href="#a"/><linearGradient id="ll" x1="-32.614" y1="-14.57" x2="72.377" y2="32.5" xlink:href="#a"/><linearGradient id="lm" x1="-138.11" y1="-61.347" x2="248.145" y2="111.623" xlink:href="#a"/><linearGradient id="ln" x1="-361.214" y1="-162.009" x2="594.972" y2="266.989" xlink:href="#a"/><linearGradient id="lo" x1="-650.772" y1="-290.958" x2="228.182" y2="102.091" xlink:href="#a"/><linearGradient id="lp" x1="-367.112" y1="-163.972" x2="127.042" y2="57.417" xlink:href="#a"/><linearGradient id="lq" x1="-252.851" y1="-113.272" x2="87.74" y2="39.376" xlink:href="#a"/><linearGradient id="lr" x1="-88.44" y1="-39.144" x2="30.343" y2="14.102" xlink:href="#a"/><linearGradient id="ls" x1="-52.316" y1="-23.39" x2="18.623" y2="8.397" xlink:href="#a"/><linearGradient id="lt" x1="-27.311" y1="-11.742" x2="9.45" y2="4.736" xlink:href="#a"/><linearGradient id="lu" x1="-24.218" y1="-10.805" x2="9.003" y2="4.088" xlink:href="#a"/><linearGradient id="lv" x1="-29.008" y1="-12.503" x2="9.843" y2="4.912" xlink:href="#a"/><linearGradient id="lw" x1="-30.635" y1="-13.684" x2="13.377" y2="6.049" xlink:href="#a"/><linearGradient id="lx" x1="-38.053" y1="-16.56" x2="17.275" y2="8.245" xlink:href="#a"/><linearGradient id="ly" x1="-89.481" y1="-40.064" x2="48.904" y2="21.976" xlink:href="#a"/><linearGradient id="lz" x1="-183.142" y1="-81.712" x2="107.219" y2="48.631" xlink:href="#a"/><linearGradient id="ma" x1="-1492.895" y1="-673.504" x2="1034.159" y2="466.634" xlink:href="#a"/><linearGradient id="mb" x1="-4076.322" y1="-1828.353" x2="4075.854" y2="1829.138" xlink:href="#a"/><linearGradient id="mc" x1="-4602.464" y1="-1512.873" x2="4601.968" y2="1513.697" xlink:href="#a"/><linearGradient id="md" x1="-286.959" y1="-128.923" x2="1465.552" y2="658.738" xlink:href="#a"/><linearGradient id="me" x1="-108.644" y1="-48.184" x2="559.268" y2="251.111" xlink:href="#a"/><linearGradient id="mf" x1="-33.717" y1="-15.06" x2="180.496" y2="80.947" xlink:href="#a"/><linearGradient id="mg" x1="-23.532" y1="-10.044" x2="125.431" y2="56.701" xlink:href="#a"/><linearGradient id="mh" x1="-11.858" y1="-5.265" x2="68.1" y2="30.586" xlink:href="#a"/><linearGradient id="mi" x1="-10.295" y1="-4.115" x2="57.202" y2="26.144" xlink:href="#a"/><linearGradient id="mj" x1="-7.307" y1="-3.224" x2="44.857" y2="20.162" xlink:href="#a"/><linearGradient id="mk" x1="-5.8" y1="-2.1" x2="25.325" y2="11.855" xlink:href="#a"/><linearGradient id="ml" x1="-5.641" y1="-2.477" x2="24.012" y2="10.815" xlink:href="#a"/><linearGradient id="mm" x1="-10.093" y1="-4.024" x2="30.412" y2="14.132" xlink:href="#a"/><linearGradient id="mn" x1="-15.257" y1="-6.789" x2="42.702" y2="19.196" xlink:href="#a"/><linearGradient id="mo" x1="-54.2" y1="-23.813" x2="117.853" y2="53.366" xlink:href="#a"/><linearGradient id="mp" x1="-132.461" y1="-59.308" x2="262.968" y2="117.898" xlink:href="#a"/><linearGradient id="mq" x1="-2653.552" y1="-1175.572" x2="4377.75" y2="1940.751" xlink:href="#a"/><linearGradient id="mr" x1="-942.345" y1="-421.005" x2="293.65" y2="131.848" xlink:href="#a"/><linearGradient id="ms" x1="-713.251" y1="-320.45" x2="221.61" y2="99.632" xlink:href="#a"/><linearGradient id="mt" x1="-331.087" y1="-147.817" x2="101.512" y2="45.974" xlink:href="#a"/><linearGradient id="mu" x1="-157.819" y1="-70.732" x2="48.888" y2="21.978" xlink:href="#a"/><linearGradient id="mv" x1="-45.62" y1="-19.948" x2="14.025" y2="6.786" xlink:href="#a"/><linearGradient id="mw" x1="-31.58" y1="-14.103" x2="10.37" y2="4.7" xlink:href="#a"/><linearGradient id="mx" x1="-26.322" y1="-11.3" x2="8.088" y2="4.126" xlink:href="#a"/><linearGradient id="my" x1="-29.121" y1="-13.001" x2="9.47" y2="4.297" xlink:href="#a"/><linearGradient id="mz" x1="-33.403" y1="-14.924" x2="11.845" y2="5.362" xlink:href="#a"/><linearGradient id="na" x1="-33.817" y1="-14.66" x2="12.6" y2="6.149" xlink:href="#a"/><linearGradient id="nb" x1="-51.055" y1="-22.83" x2="23.613" y2="10.635" xlink:href="#a"/><linearGradient id="nc" x1="-86.057" y1="-38.064" x2="42.14" y2="19.384" xlink:href="#a"/><linearGradient id="nd" x1="-502.677" y1="-225.169" x2="292.921" y2="131.293" xlink:href="#a"/><linearGradient id="ne" x1="-2215.065" y1="-993.622" x2="1402.052" y2="629.742" xlink:href="#a"/><linearGradient id="nf" x1="-1565.782" y1="-696.148" x2="6602.378" y2="2938.013" xlink:href="#a"/><linearGradient id="ng" x1="-154.064" y1="-68.737" x2="938.732" y2="419.206" xlink:href="#a"/><linearGradient id="nh" x1="-84.193" y1="-37.251" x2="516.717" y2="232.186" xlink:href="#a"/><linearGradient id="ni" x1="-32.416" y1="-14.501" x2="207.236" y2="93.085" xlink:href="#a"/><linearGradient id="nj" x1="-23.642" y1="-10.103" x2="150.556" y2="68.023" xlink:href="#a"/><linearGradient id="nk" x1="-13.161" y1="-5.844" x2="89.777" y2="40.27" xlink:href="#a"/><linearGradient id="nl" x1="-11.249" y1="-4.544" x2="74.719" y2="34.003" xlink:href="#a"/><linearGradient id="nm" x1="-6.881" y1="-2.584" x2="39.781" y2="18.328" xlink:href="#a"/><linearGradient id="nn" x1="-5.516" y1="-2.421" x2="30.546" y2="13.747" xlink:href="#a"/><linearGradient id="no" x1="-6.709" y1="-2.507" x2="25.874" y2="12.099" xlink:href="#a"/><linearGradient id="np" x1="-8.201" y1="-3.625" x2="29.953" y2="13.48" xlink:href="#a"/><linearGradient id="nq" x1="-22.513" y1="-9.591" x2="60.352" y2="27.551" xlink:href="#a"/><linearGradient id="nr" x1="-46.378" y1="-20.758" x2="113.254" y2="50.866" xlink:href="#a"/><linearGradient id="ns" x1="-484.547" y1="-217.496" x2="959.484" y2="432.168" xlink:href="#a"/><linearGradient id="nt" x1="-6606.4" y1="-3161.861" x2="1389.424" y2="665.01" xlink:href="#a"/><linearGradient id="nu" x1="-1274.97" y1="-569.523" x2="349.247" y2="156.644" xlink:href="#a"/><linearGradient id="nv" x1="-754.897" y1="-337.912" x2="206.169" y2="92.354" xlink:href="#a"/><linearGradient id="nw" x1="-132.528" y1="-58.895" x2="35.89" y2="16.585" xlink:href="#a"/><linearGradient id="nx" x1="-63.691" y1="-28.49" x2="17.909" y2="8.077" xlink:href="#a"/><linearGradient id="ny" x1="-30.681" y1="-13.255" x2="8.401" y2="4.266" xlink:href="#a"/><linearGradient id="nz" x1="-27.444" y1="-12.249" x2="8.099" y2="3.682" xlink:href="#a"/><linearGradient id="oa" x1="-35.065" y1="-15.219" x2="9.367" y2="4.699" xlink:href="#a"/><linearGradient id="ob" x1="-41.55" y1="-18.57" x2="11.561" y2="5.233" xlink:href="#a"/><linearGradient id="oc" x1="-39.37" y1="-17.15" x2="11.709" y2="5.749" xlink:href="#a"/><linearGradient id="od" x1="-38.036" y1="-17" x2="14.693" y2="6.639" xlink:href="#a"/><linearGradient id="oe" x1="-47.29" y1="-20.699" x2="19.215" y2="9.113" xlink:href="#a"/><linearGradient id="of" x1="-135.662" y1="-60.743" x2="66.577" y2="29.888" xlink:href="#a"/><linearGradient id="og" x1="-375.483" y1="-167.443" x2="198.919" y2="89.471" xlink:href="#a"/><linearGradient id="oh" x1="-3896.822" y1="-1477.908" x2="3897.297" y2="1478.678" xlink:href="#a"/><linearGradient id="oi" x1="-4077.531" y1="-1839.767" x2="3893.114" y2="1756.66" xlink:href="#a"/><linearGradient id="oj" x1="-886.169" y1="-398.95" x2="6417.858" y2="2893.425" xlink:href="#a"/><linearGradient id="ok" x1="-160.228" y1="-72.049" x2="1190.725" y2="535.855" xlink:href="#a"/><linearGradient id="ol" x1="-92.992" y1="-41.205" x2="697.032" y2="313.103" xlink:href="#a"/><linearGradient id="om" x1="-37.107" y1="-16.587" x2="289.622" y2="129.918" xlink:href="#a"/><linearGradient id="on" x1="-27.277" y1="-11.718" x2="212.782" y2="95.809" xlink:href="#a"/><linearGradient id="oo" x1="-13.836" y1="-6.151" x2="115.696" y2="51.917" xlink:href="#a"/><linearGradient id="op" x1="-10.473" y1="-4.195" x2="85.901" y2="39.009" xlink:href="#a"/><linearGradient id="oq" x1="-6.856" y1="-3.022" x2="50.799" y2="22.824" xlink:href="#a"/><linearGradient id="or" x1="-6.05" y1="-2.212" x2="30.593" y2="14.216" xlink:href="#a"/><linearGradient id="os" x1="-6.184" y1="-2.72" x2="29.755" y2="13.389" xlink:href="#a"/><linearGradient id="ot" x1="-11.59" y1="-4.696" x2="39.244" y2="18.093" xlink:href="#a"/><linearGradient id="ou" x1="-19.103" y1="-8.512" x2="59.174" y2="26.581" xlink:href="#a"/><linearGradient id="ov" x1="-109.204" y1="-48.503" x2="263.078" y2="118.55" xlink:href="#a"/><linearGradient id="ow" x1="-507.63" y1="-226.744" x2="1109.649" y2="495.817" xlink:href="#a"/><linearGradient id="ox" x1="-2940.134" y1="-1314.352" x2="711.161" y2="317.982" xlink:href="#a"/><linearGradient id="oy" x1="-682.6" y1="-305.715" x2="162.9" y2="73.577" xlink:href="#a"/><linearGradient id="oz" x1="-245.79" y1="-110.095" x2="59.034" y2="26.507" xlink:href="#a"/><linearGradient id="pa" x1="-55.088" y1="-24.205" x2="13.165" y2="6.404" xlink:href="#a"/><linearGradient id="pb" x1="-36.555" y1="-16.338" x2="9.367" y2="4.251" xlink:href="#a"/><linearGradient id="pc" x1="-30.064" y1="-12.978" x2="7.18" y2="3.719" xlink:href="#a"/><linearGradient id="pd" x1="-33.545" y1="-14.986" x2="8.499" y2="3.862" xlink:href="#a"/><linearGradient id="pe" x1="-37.593" y1="-16.8" x2="11.737" y2="5.313" xlink:href="#a"/><linearGradient id="pf" x1="-36.661" y1="-15.936" x2="12.133" y2="5.94" xlink:href="#a"/><linearGradient id="pg" x1="-53.851" y1="-24.097" x2="22.375" y2="10.085" xlink:href="#a"/><linearGradient id="ph" x1="-92.955" y1="-41.18" x2="41.009" y2="18.888" xlink:href="#a"/><linearGradient id="pi" x1="-760.033" y1="-340.341" x2="400.994" y2="179.644" xlink:href="#a"/><linearGradient id="pj" x1="-4130.258" y1="-1767.926" x2="4129.789" y2="1768.713" xlink:href="#a"/><linearGradient id="pk" x1="-5660.799" y1="-2547.113" x2="2304.156" y2="1036.861" xlink:href="#a"/><linearGradient id="pl" x1="-1381.507" y1="-609.177" x2="6876.167" y2="3035.03" xlink:href="#a"/><linearGradient id="pm" x1="-204.917" y1="-91.555" x2="1923.068" y2="859.761" xlink:href="#a"/><linearGradient id="pn" x1="-112.165" y1="-49.64" x2="1064.663" y2="476.421" xlink:href="#a"/><linearGradient id="po" x1="-47.659" y1="-21.294" x2="470.943" y2="210.98" xlink:href="#a"/><linearGradient id="pp" x1="-6.35" y1="-2.346" x2="44.286" y2="20.353" xlink:href="#a"/><linearGradient id="pq" x1="-5.743" y1="-2.523" x2="37.204" y2="16.73" xlink:href="#a"/><linearGradient id="pr" x1="-8.472" y1="-3.298" x2="37.148" y2="17.154" xlink:href="#a"/><linearGradient id="ps" x1="-11.264" y1="-4.997" x2="45.41" y2="20.407" xlink:href="#a"/><linearGradient id="pt" x1="-37.165" y1="-16.168" x2="111.154" y2="50.35" xlink:href="#a"/><linearGradient id="pu" x1="-100.067" y1="-44.816" x2="269.662" y2="120.96" xlink:href="#a"/><linearGradient id="pv" x1="-3986.294" y1="-1702.966" x2="3985.738" y2="1703.707" xlink:href="#a"/><linearGradient id="pw" x1="-3205.534" y1="-1424.648" x2="671.677" y2="299.121" xlink:href="#a"/><linearGradient id="px" x1="-1434.77" y1="-640.59" x2="299.066" y2="133.591" xlink:href="#a"/><linearGradient id="py" x1="-196.891" y1="-87.85" x2="40.6" y2="18.718" xlink:href="#a"/><linearGradient id="pz" x1="-88.044" y1="-39.42" x2="18.759" y2="8.462" xlink:href="#a"/><linearGradient id="qa" x1="-36.537" y1="-15.879" x2="7.615" y2="3.914" xlink:href="#a"/><linearGradient id="qb" x1="-32.282" y1="-14.419" x2="7.282" y2="3.316" xlink:href="#a"/><linearGradient id="qc" x1="-34.008" y1="-15.195" x2="11.84" y2="5.36" xlink:href="#a"/><linearGradient id="qd" x1="-41.109" y1="-17.929" x2="14.986" y2="7.218" xlink:href="#a"/><linearGradient id="qe" x1="-117.488" y1="-52.612" x2="52.144" y2="23.425" xlink:href="#a"/><linearGradient id="qf" x1="-334.253" y1="-149.528" x2="160.112" y2="72.366" xlink:href="#a"/><linearGradient id="qg" x1="-2853.967" y1="-1471.49" x2="2854.643" y2="1472.25" xlink:href="#a"/><linearGradient id="qh" x1="-1963.868" y1="-876.756" x2="6442.759" y2="2878.453" xlink:href="#a"/><linearGradient id="qi" x1="-375.615" y1="-167.353" x2="4700.972" y2="2095.258" xlink:href="#a"/><linearGradient id="qj" x1="-7.476" y1="-2.852" x2="44.195" y2="20.313" xlink:href="#a"/><linearGradient id="qk" x1="-8.923" y1="-3.949" x2="47.881" y2="21.518" xlink:href="#a"/><linearGradient id="ql" x1="-21.211" y1="-9.012" x2="80.727" y2="36.703" xlink:href="#a"/><linearGradient id="qm" x1="-40.581" y1="-18.14" x2="138.325" y2="62.06" xlink:href="#a"/><linearGradient id="qn" x1="-475.606" y1="-212.399" x2="1276.905" y2="572.092" xlink:href="#a"/><linearGradient id="qo" x1="-3756.307" y1="-4544.037" x2="3756.58" y2="4543.366" xlink:href="#a"/><linearGradient id="qp" x1="-1144.486" y1="-511.427" x2="203.326" y2="91.448" xlink:href="#a"/><linearGradient id="qq" x1="-415.324" y1="-186.415" x2="73.904" y2="33.231" xlink:href="#a"/><linearGradient id="qr" x1="-83.713" y1="-37.023" x2="14.774" y2="7.122" xlink:href="#a"/><linearGradient id="qs" x1="-50.177" y1="-22.443" x2="9.458" y2="4.292" xlink:href="#a"/><linearGradient id="qt" x1="-42.965" y1="-19.211" x2="16.2" y2="7.315" xlink:href="#a"/><linearGradient id="qu" x1="-73.083" y1="-32.252" x2="29.02" y2="13.505" xlink:href="#a"/><linearGradient id="qv" x1="-588.592" y1="-264.408" x2="280.926" y2="126.273" xlink:href="#a"/><linearGradient id="qw" x1="-6889.639" y1="-3264.668" x2="1229.788" y2="583.323" xlink:href="#a"/><linearGradient id="qx" x1="-16.531" y1="-6.911" x2="82.864" y2="37.65" xlink:href="#a"/><linearGradient id="qy" x1="-27.136" y1="-12.116" x2="120.141" y2="53.922" xlink:href="#a"/><linearGradient id="qz" x1="-141.155" y1="-62.798" x2="474.127" y2="213.112" xlink:href="#a"/><linearGradient id="ra" x1="-683.277" y1="-306.303" x2="2051.291" y2="919.771" xlink:href="#a"/><linearGradient id="rb" x1="-2246.466" y1="-1002.822" x2="337.621" y2="150.776" xlink:href="#a"/><linearGradient id="rc" x1="-373.178" y1="-167.005" x2="55.156" y2="25.257" xlink:href="#a"/><linearGradient id="rd" x1="-283.947" y1="-126.943" x2="122.552" y2="55.505" xlink:href="#a"/><linearGradient id="re" x1="-262.048" y1="-117.295" x2="998.666" y2="447.26" xlink:href="#a"/><linearGradient id="rf" x1="-1997.242" y1="-896.523" x2="244.549" y2="110.334" xlink:href="#a"/><linearGradient id="rg" x1="-10835.317" y1="-4980.291" x2="-2695.795" y2="-1238.707" xlink:href="#a"/></defs><g transform="translate(-183.323 -78.123)" opacity="0.5"><path d="M686.468,449.593,656.524,432.3l29.944-17.3Z" transform="translate(435.345 309.932)" fill="url(#a)"/><path d="M721.854,432.119l-29.3,16.917V415.2Z" transform="translate(468.493 310.115)" fill="url(#b)"/><path d="M732.124,422.43l-29.3-16.917,29.3-16.909Z" transform="translate(477.942 285.642)" fill="url(#c)"/><path d="M723.063,379.319,692.3,397.087V361.555Z" transform="translate(468.258 260.758)" fill="url(#d)"/><path d="M687.6,397.865l-31.682-18.292L687.6,361.279Z" transform="translate(434.791 260.504)" fill="url(#e)"/><path d="M677.358,406.047l-31.215,18.021V388.024Z" transform="translate(425.794 285.109)" fill="url(#f)"/><path d="M677.321,459.24l-31.171,18V441.246Z" transform="translate(425.801 334.073)" fill="url(#g)"/><path d="M732.942,476.71l-30.551-17.641,30.551-17.639Z" transform="translate(477.543 334.243)" fill="url(#h)"/><path d="M767.9,405.505,738.64,422.4V388.613Z" transform="translate(510.892 285.651)" fill="url(#i)"/><path d="M733.889,371.533l-32-18.48,32-18.474Z" transform="translate(477.082 235.94)" fill="url(#j)"/><path d="M678.393,353.185l-32.469,18.751v-37.5Z" transform="translate(425.593 235.812)" fill="url(#k)"/><path d="M641.829,424.86,609.681,406.3l32.145-18.553Z" transform="translate(392.249 284.855)" fill="url(#l)"/><path d="M688.386,505.311,655.5,486.322l32.884-18.991Z" transform="translate(434.403 358.071)" fill="url(#m)"/><path d="M723.614,485.915l-31.428,18.15V467.771Z" transform="translate(468.153 358.476)" fill="url(#n)"/><path d="M768.554,458.926,738.5,476.281v-34.7Z" transform="translate(510.767 334.381)" fill="url(#o)"/><path d="M778.9,449.945l-30.359-17.53L778.9,414.884Z" transform="translate(519.997 309.82)" fill="url(#p)"/><path d="M779.167,397.1l-30.778-17.772,30.778-17.771Z" transform="translate(519.861 260.756)" fill="url(#q)"/><path d="M769.83,352.943l-31.6,18.248V334.7Z" transform="translate(510.517 236.054)" fill="url(#r)"/><path d="M726.811,327.367l-35.3,20.385V306.982Z" transform="translate(467.534 210.55)" fill="url(#s)"/><path d="M690.369,348.269l-35.916-20.734L690.369,306.8Z" transform="translate(433.44 210.382)" fill="url(#t)"/><path d="M641.829,371.657l-32.148-18.564,32.145-18.553Z" transform="translate(392.249 235.904)" fill="url(#u)"/><path d="M632.055,379.7,599.9,398.271V361.138Z" transform="translate(383.254 260.374)" fill="url(#v)"/><path d="M631.756,432.807l-31.793,18.355V414.456Z" transform="translate(383.309 309.426)" fill="url(#w)"/><path d="M641.352,477.445l-31.417-18.136,31.417-18.136Z" transform="translate(392.483 334.005)" fill="url(#x)"/><path d="M643.179,533.051l-34.22-19.759,34.22-19.757Z" transform="translate(391.585 382.179)" fill="url(#y)"/><path d="M680.022,513.352l-34.441,19.882V493.47Z" transform="translate(425.277 382.119)" fill="url(#z)"/><path d="M733.11,530.125,702.3,512.344l30.81-17.779Z" transform="translate(477.459 383.127)" fill="url(#aa)"/><path d="M767.024,511.628l-28.2,16.276V495.344Z" transform="translate(511.058 383.843)" fill="url(#ab)"/><path d="M778.724,502.931l-30.1-17.38,30.1-17.382Z" transform="translate(520.077 358.842)" fill="url(#ac)"/><path d="M816.167,432.841l-31.909,18.42V414.42Z" transform="translate(552.86 309.393)" fill="url(#ad)"/><path d="M825.824,424.449l-31.663-18.28,31.663-18.278Z" transform="translate(561.971 284.986)" fill="url(#ae)"/><path d="M815.787,379.507l-31.45,18.158V361.351Z" transform="translate(552.933 260.57)" fill="url(#af)"/><path d="M780.212,345.246l-32.375-18.693,32.375-18.687Z" transform="translate(519.353 211.364)" fill="url(#ag)"/><path d="M771.121,300.171l-33.16,19.148v-38.3Z" transform="translate(510.267 186.668)" fill="url(#ah)"/><path d="M736.981,322.367l-36.739-21.21,36.739-21.2Z" transform="translate(475.566 185.683)" fill="url(#ai)"/><path d="M683.736,301.767,644.8,324.251V279.288Z" transform="translate(424.561 185.072)" fill="url(#aj)"/><path d="M644.747,322.282,608.125,301.13l36.622-21.149Z" transform="translate(390.818 185.709)" fill="url(#ak)"/><path d="M633.137,326.858l-33.462,19.325V307.537Z" transform="translate(383.044 211.061)" fill="url(#al)"/><path d="M596.021,398.619l-32.565-18.8,32.565-18.8Z" transform="translate(349.722 260.26)" fill="url(#am)"/><path d="M587.508,406.821,553.5,426.457V387.183Z" transform="translate(340.564 284.335)" fill="url(#an)"/><path d="M595.787,451.51l-32.2-18.588,32.206-18.589Z" transform="translate(349.839 309.313)" fill="url(#ao)"/><path d="M633.325,486.54l-33.692,19.446V467.092Z" transform="translate(383.005 357.852)" fill="url(#ap)"/><path d="M633.534,539.82l-33.944,19.6V520.221Z" transform="translate(382.966 406.73)" fill="url(#aq)"/><path d="M688.18,558.241l-32.567-18.8,32.567-18.8Z" transform="translate(434.507 407.112)" fill="url(#ar)"/><path d="M722.343,538.7,692.45,555.967V521.44Z" transform="translate(468.397 407.852)" fill="url(#as)"/><path d="M775.126,551.421l-24.584-14.187,24.584-14.2Z" transform="translate(521.842 409.32)" fill="url(#at)"/><path d="M814.6,485.517l-30.01,17.324V468.2Z" transform="translate(553.163 358.87)" fill="url(#au)"/><path d="M826.534,478.582l-32.749-18.9,32.749-18.906Z" transform="translate(561.625 333.636)" fill="url(#av)"/><path d="M863.776,406.756l-33.761,19.494V387.258Z" transform="translate(594.956 284.404)" fill="url(#aw)"/><path d="M825.824,371.248l-31.663-18.286,31.663-18.28Z" transform="translate(561.971 236.034)" fill="url(#ax)"/><path d="M815.573,326.231l-31.19,18.008V308.218Z" transform="translate(552.974 211.687)" fill="url(#ay)"/><path d="M778.6,289.936l-29.9-17.272L778.6,255.4Z" transform="translate(520.142 163.096)" fill="url(#az)"/><path d="M729.118,274.927,691.027,296.92V252.941Z" transform="translate(467.088 160.833)" fill="url(#ba)"/><path d="M692.829,298.279l-39.686-22.911,39.686-22.909Z" transform="translate(432.234 160.388)" fill="url(#bb)"/><path d="M635.2,274.336,599.243,295.1v-41.52Z" transform="translate(382.646 161.423)" fill="url(#bc)"/><path d="M595.787,345.094l-32.2-18.589,32.206-18.584Z" transform="translate(349.839 211.414)" fill="url(#bd)"/><path d="M585.764,353.027l-31.9,18.415V334.612Z" transform="translate(340.901 235.97)" fill="url(#be)"/><path d="M552.411,428.451l-36.346-20.986,36.346-20.986Z" transform="translate(306.123 283.689)" fill="url(#bf)"/><path d="M585.764,459.441l-31.9,18.417V441.026Z" transform="translate(340.901 333.871)" fill="url(#bg)"/><path d="M595.922,504.9l-32.413-18.712,32.413-18.712Z" transform="translate(349.771 358.204)" fill="url(#bh)"/><path d="M641.62,584.215l-31.83-18.372,31.83-18.384Z" transform="translate(392.35 431.788)" fill="url(#bi)"/><path d="M677.49,565.711l-31.378,18.109V547.6Z" transform="translate(425.766 431.917)" fill="url(#bj)"/><path d="M729.492,578.615l-25.267-14.592,25.267-14.59Z" transform="translate(479.23 433.605)" fill="url(#bk)"/><path d="M761.27,562.914l-21.237,12.265V550.641Z" transform="translate(512.173 434.717)" fill="url(#bl)"/><path d="M809.626,537.066l-24,13.851v-27.7Z" transform="translate(554.122 409.483)" fill="url(#bm)"/><path d="M823.636,528.007l-28.31-16.349,28.31-16.347Z" transform="translate(563.043 383.813)" fill="url(#bn)"/><path d="M865.616,460.572l-35.99,20.772V439.8Z" transform="translate(594.599 332.742)" fill="url(#bo)"/><path d="M876.007,456.419l-37.945-21.909,37.949-21.9Z" transform="translate(602.36 307.724)" fill="url(#bp)"/><path d="M873.563,400.02l-34.207-19.753,34.207-19.743Z" transform="translate(603.551 259.809)" fill="url(#bq)"/><path d="M862.479,353.1l-32.193,18.588V334.528Z" transform="translate(595.206 235.893)" fill="url(#br)"/><path d="M823.645,315.186l-28.322-16.355,28.322-16.349Z" transform="translate(563.04 188.011)" fill="url(#bs)"/><path d="M811.409,271.625l-26.152,15.1v-30.2Z" transform="translate(553.78 164.134)" fill="url(#bt)"/><path d="M766.1,245.288l-27.085,15.636V229.644Z" transform="translate(511.24 139.399)" fill="url(#bu)"/><path d="M734.122,265.428l-32.36-18.682,32.36-18.687Z" transform="translate(476.964 137.941)" fill="url(#bv)"/><path d="M681.976,247.972l-36.808,21.237V226.727Z" transform="translate(424.897 136.716)" fill="url(#bw)"/><path d="M643.637,267.613l-34.923-20.158,34.923-20.166Z" transform="translate(391.36 137.233)" fill="url(#bx)"/><path d="M595.891,292.028l-32.362-18.685,32.362-18.68Z" transform="translate(349.79 162.417)" fill="url(#by)"/><path d="M585.461,299.72l-31.53,18.205V281.515Z" transform="translate(340.959 187.121)" fill="url(#bz)"/><path d="M550.637,372.929,517.01,353.506l33.625-19.415Z" transform="translate(306.992 235.491)" fill="url(#ca)"/><path d="M544.284,381.174,506.821,402.8V359.539Z" transform="translate(297.618 258.903)" fill="url(#cb)"/><path d="M543.824,434.222l-36.906,21.308V412.918Z" transform="translate(297.707 308.011)" fill="url(#cc)"/><path d="M550.288,478.885l-33.1-19.114,33.1-19.1Z" transform="translate(307.159 333.541)" fill="url(#cd)"/><path d="M585.283,512.488,553.968,530.57V494.409Z" transform="translate(340.993 382.983)" fill="url(#ce)"/><path d="M595.34,557.356l-31.521-18.2,31.521-18.207Z" transform="translate(350.056 407.396)" fill="url(#cf)"/><path d="M591.608,605.669l-25.8-14.9,25.8-14.9Z" transform="translate(351.882 457.935)" fill="url(#cg)"/><path d="M628.746,591.422l-28.151,16.251v-32.5Z" transform="translate(383.89 457.286)" fill="url(#ch)"/><path d="M684.259,606.31,657.7,590.983l26.561-15.333Z" transform="translate(436.425 457.725)" fill="url(#ci)"/><path d="M716.539,589.962l-22.871,13.2v-26.4Z" transform="translate(469.517 458.746)" fill="url(#cj)"/><path d="M768.739,596.279l-14.8-8.546,14.8-8.552Z" transform="translate(524.968 460.974)" fill="url(#ck)"/><path d="M800.576,587.245l-13.041,7.534V579.713Z" transform="translate(555.875 461.463)" fill="url(#cl)"/><path d="M817.767,573.527l-19.319-11.149,19.321-11.155Z" transform="translate(565.915 435.251)" fill="url(#cm)"/><path d="M861.593,512.435,830.477,530.4V494.466Z" transform="translate(595.382 383.036)" fill="url(#cn)"/><path d="M874.974,508.273l-36.365-20.993,36.365-20.991Z" transform="translate(602.863 357.112)" fill="url(#co)"/><path d="M917.489,435.911l-43,24.829V411.082Z" transform="translate(635.875 306.322)" fill="url(#cp)"/><path d="M925.012,433.64l-42.43-24.493,42.43-24.493Z" transform="translate(643.318 282.008)" fill="url(#cq)"/><path d="M913.326,381.309l-37.96,21.915V359.392Z" transform="translate(636.68 258.768)" fill="url(#cr)"/><path d="M870.705,343.081l-29.829-17.226,29.829-17.228Z" transform="translate(604.949 212.064)" fill="url(#cs)"/><path d="M857.383,298.2l-26.024,15.03V283.171Z" transform="translate(596.193 188.644)" fill="url(#ct)"/><path d="M817.573,254.027l-19.021-10.973,19.021-10.982Z" transform="translate(566.01 141.633)" fill="url(#cu)"/><path d="M801.274,215.025l-13.889,8.014V207.013Z" transform="translate(555.737 118.579)" fill="url(#cv)"/><path d="M770.434,226.049,753.039,216l17.4-10.049Z" transform="translate(524.139 117.605)" fill="url(#cw)"/><path d="M719.9,218.644,692.962,234.2V203.084Z" transform="translate(468.868 114.964)" fill="url(#cx)"/><path d="M686.637,236.978l-30.2-17.434,30.2-17.439Z" transform="translate(435.261 114.063)" fill="url(#cy)"/><path d="M629.854,219.347l-29.489,17.027V202.32Z" transform="translate(383.679 114.261)" fill="url(#cz)"/><path d="M591.874,233.577l-26.212-15.133L591.874,203.3Z" transform="translate(351.752 115.165)" fill="url(#da)"/><path d="M582.545,245.544l-28,16.166V229.366Z" transform="translate(341.522 139.144)" fill="url(#db)"/><path d="M548.033,316.312,518.394,299.2l29.635-17.111Z" transform="translate(308.265 187.644)" fill="url(#dc)"/><path d="M539.941,326.508l-32.206,18.6V307.917Z" transform="translate(298.459 211.411)" fill="url(#dd)"/><path d="M510.588,407.406l-42.86-24.745,42.86-24.739Z" transform="translate(261.653 257.415)" fill="url(#de)"/><path d="M506.724,410.628l-47.772,27.581V383.045Z" transform="translate(253.579 280.528)" fill="url(#df)"/><path d="M510.588,460.616l-42.86-24.745,42.86-24.745Z" transform="translate(261.653 306.363)" fill="url(#dg)"/><path d="M539.941,486.129l-32.206,18.589V467.54Z" transform="translate(298.459 358.264)" fill="url(#dh)"/><path d="M548.266,529.439l-29.994-17.316,29.994-17.317Z" transform="translate(308.153 383.348)" fill="url(#di)"/><path d="M581.791,564.527,554.7,580.169V548.885Z" transform="translate(341.669 433.101)" fill="url(#dj)"/><path d="M574.842,615.4l-18.68,10.781v-21.56Z" transform="translate(343.012 484.382)" fill="url(#dk)"/><path d="M635,628.757l-21.685-12.52L635,603.72Z" transform="translate(395.593 483.549)" fill="url(#dl)"/><path d="M669.128,616.121l-21.256,12.271V603.848Z" transform="translate(427.385 483.667)" fill="url(#dm)"/><path d="M722.872,623.152,707.75,614.42l15.122-8.73Z" transform="translate(482.473 485.362)" fill="url(#dn)"/><path d="M753.22,613.422l-11.5,6.634V606.781Z" transform="translate(513.726 486.365)" fill="url(#do)"/><path d="M811.069,617.982l-9.055-5.232,9.055-5.238Z" transform="translate(569.196 487.038)" fill="url(#dp)"/><path d="M853.23,562.84l-21,12.117V550.719Z" transform="translate(596.995 434.788)" fill="url(#dq)"/><path d="M870.42,555.521l-29.389-16.965,29.389-16.965Z" transform="translate(605.091 407.991)" fill="url(#dr)"/><path d="M915.868,488.57l-41.04,23.693V464.885Z" transform="translate(636.185 355.821)" fill="url(#ds)"/><path d="M926.61,488.946l-44.88-25.914,44.88-25.907Z" transform="translate(642.535 330.282)" fill="url(#dt)"/><path d="M967.453,410.607l-47.7,27.542V383.065Z" transform="translate(677.515 280.547)" fill="url(#du)"/><path d="M921.592,375.969,884.4,354.492l37.19-21.473Z" transform="translate(644.993 234.504)" fill="url(#dv)"/><path d="M908.013,326.323,876.479,344.53V308.119Z" transform="translate(637.704 211.596)" fill="url(#dw)"/><path d="M864.583,281.853l-20.45-11.806,20.45-11.8Z" transform="translate(607.945 165.714)" fill="url(#dx)"/><path d="M849.3,242.29l-16.237,9.379V232.907Z" transform="translate(597.757 142.401)" fill="url(#dy)"/><path d="M809.274,189.966l-6.305-3.636,6.305-3.637Z" transform="translate(570.074 96.204)" fill="url(#dz)"/><path d="M753.169,187.748l-11.434,6.593V181.147Z" transform="translate(513.739 94.782)" fill="url(#ea)"/><path d="M722.991,197.663l-15.308-8.844,15.308-8.844Z" transform="translate(482.411 93.705)" fill="url(#eb)"/><path d="M669.261,190.513l-21.42,12.369V178.142Z" transform="translate(427.358 92.018)" fill="url(#ec)"/><path d="M634.907,202.989l-21.548-12.44L634.907,178.1Z" transform="translate(395.633 91.981)" fill="url(#ed)"/><path d="M573.593,189.337l-17.169,9.911V179.42Z" transform="translate(343.253 93.193)" fill="url(#ee)"/><path d="M544.287,258.2l-23.9-13.8,23.9-13.8Z" transform="translate(310.099 140.281)" fill="url(#ef)"/><path d="M534.832,271.591l-26.024,15.028V256.567Z" transform="translate(299.446 164.169)" fill="url(#eg)"/><path d="M505.73,347.844,470.31,327.4l35.42-20.444Z" transform="translate(264.028 210.523)" fill="url(#eh)"/><path d="M502.668,356.06,459.808,380.8v-49.49Z" transform="translate(254.366 232.937)" fill="url(#ei)"/><path d="M474.17,446.652,416.5,413.363l57.667-33.291Z" transform="translate(214.526 277.793)" fill="url(#ej)"/><path d="M502.226,462.33,459.9,486.765V437.888Z" transform="translate(254.451 330.984)" fill="url(#ek)"/><path d="M506.123,507.989l-36.023-20.8,36.023-20.805Z" transform="translate(263.835 357.202)" fill="url(#el)"/><path d="M535.594,537.883l-26.947,15.556V522.325Z" transform="translate(299.298 408.666)" fill="url(#em)"/><path d="M544.738,578.036l-24.593-14.2,24.593-14.2Z" transform="translate(309.876 433.791)" fill="url(#en)"/><path d="M583.35,648.072l-13.15-7.59,13.15-7.6Z" transform="translate(355.927 510.383)" fill="url(#eo)"/><path d="M616.927,640.674l-13.849,7.987V632.679Z" transform="translate(386.175 510.192)" fill="url(#ep)"/><path d="M675.277,647.784l-12.8-7.4,12.8-7.394Z" transform="translate(440.823 510.48)" fill="url(#eq)"/><path d="M706.364,639.761l-10.558,6.092V633.671Z" transform="translate(471.484 511.104)" fill="url(#er)"/><path d="M763.59,642.741l-6.912-3.986,6.912-3.99Z" transform="translate(527.487 512.111)" fill="url(#es)"/><path d="M794.9,638.552l-6.177,3.558v-7.123Z" transform="translate(556.97 512.314)" fill="url(#et)"/><path d="M843.847,612.908l-9.644,5.56V607.34Z" transform="translate(598.81 486.88)" fill="url(#eu)"/><path d="M861.21,596.68l-15.279-8.817,15.279-8.822Z" transform="translate(609.6 460.845)" fill="url(#ev)"/><path d="M908.963,539.471l-32.682,18.868V520.6Z" transform="translate(637.521 407.078)" fill="url(#ew)"/><path d="M922.178,536.358l-38.089-21.992,38.089-21.994Z" transform="translate(644.705 381.11)" fill="url(#ex)"/><path d="M968.517,464.169,919.53,492.455V435.886Z" transform="translate(677.311 329.142)" fill="url(#ey)"/><path d="M977.882,469.135l-52.837-30.507,52.837-30.5Z" transform="translate(682.384 303.602)" fill="url(#ez)"/><path d="M974.469,411.458l-47.6-27.481,47.6-27.483Z" transform="translate(684.058 256.101)" fill="url(#fa)"/><path d="M961.233,355.318l-40.176,23.2v-46.4Z" transform="translate(678.715 233.679)" fill="url(#fb)"/><path d="M914.485,313.464l-26.3-15.191,26.3-15.187Z" transform="translate(648.471 188.566)" fill="url(#fc)"/><path d="M898.177,269.821l-19.628,11.341V258.491Z" transform="translate(639.608 165.939)" fill="url(#fd)"/><path d="M857.024,218.757l-8.868-5.115,8.868-5.123Z" transform="translate(611.646 119.965)" fill="url(#fe)"/><path d="M839.907,185.935l-4.877,2.809v-5.626Z" transform="translate(599.571 96.595)" fill="url(#ff)"/><path d="M792.114,158.758l-2.8,1.62v-3.243Z" transform="translate(557.509 72.692)" fill="url(#fg)"/><path d="M761.744,161.461l-4.084-2.35,4.084-2.358Z" transform="translate(528.39 72.34)" fill="url(#fh)"/><path d="M704.824,160.386l-8.692,5.019V155.367Z" transform="translate(471.784 71.064)" fill="url(#fi)"/><path d="M674.152,167.439l-11.078-6.394,11.077-6.4Z" transform="translate(441.371 70.405)" fill="url(#fj)"/><path d="M615.71,161.407l-12.376,7.142V154.257Z" transform="translate(386.41 70.043)" fill="url(#fk)"/><path d="M582.056,167.523l-11.174-6.449,11.174-6.449Z" transform="translate(356.554 70.381)" fill="url(#fl)"/><path d="M537.27,195.813l-13.152-7.588,13.152-7.6Z" transform="translate(313.531 94.305)" fill="url(#fm)"/><path d="M527.191,215.83l-16.775,9.686V206.142Z" transform="translate(300.926 117.778)" fill="url(#fn)"/><path d="M499.715,286.783l-26.21-15.139,26.21-15.133Z" transform="translate(266.967 164.116)" fill="url(#fo)"/><path d="M493.862,299.9l-32.206,18.6V281.314Z" transform="translate(256.066 186.936)" fill="url(#fp)"/><path d="M469.794,387.732,418.83,358.3l50.964-29.428Z" transform="translate(216.666 230.693)" fill="url(#fq)"/><path d="M471.12,387.528l-60.444,34.9v-69.8Z" transform="translate(209.165 252.548)" fill="url(#fr)"/><path d="M472.114,441.071l-61.647,35.6V405.474Z" transform="translate(208.972 301.163)" fill="url(#fs)"/><path d="M469.724,494.043l-50.853-29.357,50.853-29.359Z" transform="translate(216.704 328.628)" fill="url(#ft)"/><path d="M494.625,512.991l-33.13,19.125V493.864Z" transform="translate(255.918 382.482)" fill="url(#fu)"/><path d="M500.8,554.237l-27.878-16.1,27.878-16.1Z" transform="translate(266.433 408.409)" fill="url(#fv)"/><path d="M529.746,589.136l-19.868,11.472v-22.95Z" transform="translate(300.431 459.572)" fill="url(#fw)"/><path d="M539.374,624.219,523,614.769l16.37-9.456Z" transform="translate(312.507 485.015)" fill="url(#fx)"/><path d="M532.549,668.495l-5.918-3.41,5.918-3.418Z" transform="translate(315.843 536.861)" fill="url(#fy)"/><path d="M565.137,665.365l-6.937,4.007v-8.01Z" transform="translate(344.887 536.58)" fill="url(#fz)"/><path d="M625.693,669.785l-7.429-4.283,7.429-4.287Z" transform="translate(400.146 536.444)" fill="url(#ga)"/><path d="M657.7,665.505l-7.429,4.282v-8.571Z" transform="translate(429.592 536.446)" fill="url(#gb)"/><path d="M716.565,668.118,711.1,664.96l5.464-3.157Z" transform="translate(485.556 536.986)" fill="url(#gc)"/><path d="M747.677,664.781l-4.792,2.765V662Z" transform="translate(514.797 537.17)" fill="url(#gd)"/><path d="M807.762,666.861l-3.992-2.306,3.992-2.312Z" transform="translate(570.811 537.391)" fill="url(#ge)"/><path d="M839.515,664.665l-4.4,2.533v-5.077Z" transform="translate(599.644 537.278)" fill="url(#gf)"/><path d="M856.076,643.181l-7.415-4.283,7.415-4.287Z" transform="translate(612.111 511.968)" fill="url(#gg)"/><path d="M896.364,588.46l-17.439,10.065V578.392Z" transform="translate(639.954 460.248)" fill="url(#gh)"/><path d="M914.033,578.9l-25.611-14.784,25.611-14.782Z" transform="translate(648.691 433.514)" fill="url(#gi)"/><path d="M960.688,514.756l-39.517,22.815V491.943Z" transform="translate(678.82 380.714)" fill="url(#gj)"/><path d="M973.968,517.224l-46.842-27.043,46.842-27.045Z" transform="translate(684.299 354.212)" fill="url(#gk)"/><path d="M1023.285,440.48l-59.5,34.362V406.116Z" transform="translate(718.022 301.754)" fill="url(#gl)"/><path d="M1029.86,450.243l-61.872-35.716,61.872-35.718Z" transform="translate(721.892 276.631)" fill="url(#gm)"/><path d="M1018.928,385.812,964.7,417.126V354.5Z" transform="translate(718.865 254.264)" fill="url(#gn)"/><path d="M966.272,347.52l-35.048-20.229,35.048-20.225Z" transform="translate(688.069 210.628)" fill="url(#go)"/><path d="M950.1,298.385l-26.709,15.423V282.965Z" transform="translate(680.867 188.455)" fill="url(#gp)"/><path d="M905.787,248.875l-12.981-7.492,12.981-7.494Z" transform="translate(652.725 143.305)" fill="url(#gq)"/><path d="M888.2,213.277l-7.552,4.354v-8.715Z" transform="translate(641.535 120.331)" fill="url(#gr)"/><path d="M852.181,159.217l-1.448-.833,1.448-.841Z" transform="translate(614.017 73.066)" fill="url(#gs)"/><path d="M836.079,131.451l-.251.142V131.3Z" transform="translate(600.305 48.924)" fill="url(#gt)"/><path d="M805.43,131.724l-.418-.232.415-.24Z" transform="translate(571.954 48.879)" fill="url(#gu)"/><path d="M744.905,131.774l-1.434.826v-1.653Z" transform="translate(515.336 48.597)" fill="url(#gv)"/><path d="M714.66,133.544l-2.544-1.467,2.544-1.465Z" transform="translate(486.49 48.29)" fill="url(#gw)"/><path d="M655.651,132.741l-4.948,2.849v-5.7Z" transform="translate(429.99 47.629)" fill="url(#gx)"/><path d="M624.374,135.992l-5.408-3.12,5.412-3.12Z" transform="translate(400.791 47.499)" fill="url(#gy)"/><path d="M563.04,132.593l-4.4,2.534v-5.073Z" transform="translate(345.293 47.777)" fill="url(#gz)"/><path d="M530.7,134.017l-3.089-1.786,3.089-1.786Z" transform="translate(316.747 48.137)" fill="url(#ha)"/><path d="M518.4,159.68l-6.136,3.54v-7.087Z" transform="translate(302.622 71.77)" fill="url(#hb)"/><path d="M492.342,223.923l-14.914-8.609,14.914-8.609Z" transform="translate(270.576 118.295)" fill="url(#hc)"/><path d="M459.289,320.773,424.422,300.64l34.865-20.127Z" transform="translate(221.811 186.199)" fill="url(#hd)"/><path d="M459.1,330.3l-45.9,26.5v-53Z" transform="translate(211.486 207.619)" fill="url(#he)"/><path d="M433.667,427.354,367.46,389.123,433.665,350.9Z" transform="translate(169.406 250.953)" fill="url(#hf)"/><path d="M436.049,417.815l-73.763,42.591V375.231Z" transform="translate(164.646 273.339)" fill="url(#hg)"/><path d="M437.151,485.114,365.61,443.807,437.151,402.5Z" transform="translate(167.704 298.427)" fill="url(#hh)"/><path d="M461.994,490.889l-49.4,28.523V462.365Z" transform="translate(210.929 353.503)" fill="url(#hi)"/><path d="M460.864,535.659l-37.277-21.521,37.277-21.523Z" transform="translate(221.043 381.333)" fill="url(#hj)"/><path d="M486,563.313l-22.691,13.1v-26.2Z" transform="translate(257.586 434.317)" fill="url(#hk)"/><path d="M494.712,599.471l-18.543-10.7,18.543-10.708Z" transform="translate(269.418 459.941)" fill="url(#hl)"/><path d="M521.477,639.573l-9.863,5.691V633.876Z" transform="translate(302.028 511.293)" fill="url(#hm)"/><path d="M515.321,690.715l-2.415,1.4v-2.8Z" transform="translate(303.216 562.302)" fill="url(#hn)"/><path d="M577.251,693.3,573.44,691.1l3.811-2.2Z" transform="translate(358.908 561.919)" fill="url(#ho)"/><path d="M608.632,691.1l-3.811,2.2V688.9Z" transform="translate(387.778 561.918)" fill="url(#hp)"/><path d="M669.409,693.3,665.6,691.1l3.811-2.2Z" transform="translate(443.693 561.919)" fill="url(#hq)"/><path d="M700.487,691l-3.445,1.989v-3.969Z" transform="translate(472.622 562.022)" fill="url(#hr)"/><path d="M761.091,692.684,758,690.9l3.087-1.778Z" transform="translate(528.707 562.117)" fill="url(#hs)"/><path d="M792.068,690.807l-2.751,1.588v-3.174Z" transform="translate(557.515 562.21)" fill="url(#ht)"/><path d="M853.142,692.538l-2.92-1.686,2.92-1.68Z" transform="translate(613.547 562.165)" fill="url(#hu)"/><path d="M889.043,639.217l-8.577,4.948v-9.9Z" transform="translate(641.372 511.649)" fill="url(#hv)"/><path d="M905.222,620.579l-12.111-6.989,12.111-6.994Z" transform="translate(653.005 486.195)" fill="url(#hw)"/><path d="M948.049,563.732l-24.217,13.985V549.749Z" transform="translate(681.268 433.896)" fill="url(#hx)"/><path d="M964.107,557.534,932.375,539.21l31.732-18.325Z" transform="translate(689.128 407.341)" fill="url(#hy)"/><path d="M1014.958,490.9l-49.427,28.537V462.356Z" transform="translate(719.632 353.495)" fill="url(#hz)"/><path d="M1027.164,499.935l-57.742-33.343,57.742-33.341Z" transform="translate(723.211 326.719)" fill="url(#ia)"/><path d="M1073.647,415.307,1008.96,452.66v-74.7Z" transform="translate(759.586 275.849)" fill="url(#ib)"/><path d="M1021.661,386.316,972.351,357.84l49.309-28.464Z" transform="translate(725.906 231.153)" fill="url(#ic)"/><path d="M1005.288,328.037,967.56,349.816V306.255Z" transform="translate(721.498 209.882)" fill="url(#id)"/><path d="M955.078,279.683l-17.9-10.341,17.9-10.33Z" transform="translate(693.547 166.418)" fill="url(#ie)"/><path d="M937.6,241l-11.575,6.678V234.309Z" transform="translate(683.284 143.691)" fill="url(#if)"/><path d="M899.44,187.364l-3.256-1.88,3.256-1.88Z" transform="translate(655.831 97.043)" fill="url(#ig)"/><path d="M882.871,158.293l-1.112.639v-1.29Z" transform="translate(642.561 73.158)" fill="url(#ih)"/><path d="M759.1,104.8l-.033-.019.033-.019Z" transform="translate(529.685 24.51)" fill="url(#ii)"/><path d="M698.18,104.952l-.653.374v-.749Z" transform="translate(473.068 24.339)" fill="url(#ij)"/><path d="M667.727,105.827l-1.234-.71,1.234-.716Z" transform="translate(444.516 24.175)" fill="url(#ik)"/><path d="M606.9,105.25l-1.715.991v-1.983Z" transform="translate(388.114 24.043)" fill="url(#il)"/><path d="M575.8,106.131l-1.588-.918,1.588-.918Z" transform="translate(359.621 24.078)" fill="url(#im)"/><path d="M513.8,104.929l-.568.33V104.6Z" transform="translate(303.513 24.362)" fill="url(#in)"/><path d="M485.6,161.9l-4.579-2.648L485.6,156.6Z" transform="translate(273.879 72.201)" fill="url(#io)"/><path d="M473.813,186.782l-7.945,4.587V182.2Z" transform="translate(259.941 95.746)" fill="url(#ip)"/><path d="M449.029,254.151l-19.148-11.057,19.148-11.065Z" transform="translate(226.833 141.594)" fill="url(#iq)"/><path d="M443.117,271.734l-26.561,15.333V256.411Z" transform="translate(214.574 164.025)" fill="url(#ir)"/><path d="M421.219,357.861l-47.138-27.218,47.138-27.22Z" transform="translate(175.497 207.276)" fill="url(#is)"/><path d="M422.744,360.154l-57.665,33.291v-66.58Z" transform="translate(167.216 228.843)" fill="url(#it)"/><path d="M392.075,459.815,319,417.625l73.079-42.186Z" transform="translate(124.819 273.531)" fill="url(#iu)"/><path d="M433.985,470.33,362.72,511.474V429.192Z" transform="translate(165.045 322.984)" fill="url(#iv)"/><path d="M429.623,528.471l-60.01-34.646,60.01-34.648Z" transform="translate(171.387 350.569)" fill="url(#iw)"/><path d="M448.985,539.742l-33.66,19.428V520.306Z" transform="translate(213.442 406.808)" fill="url(#ix)"/><path d="M451.8,577.006l-23.4-13.5L451.8,550Z" transform="translate(225.475 434.124)" fill="url(#iy)"/><path d="M477.866,613.8l-12.849,7.415V606.374Z" transform="translate(259.159 485.991)" fill="url(#iz)"/><path d="M488.08,644l-8.385-4.84,8.385-4.844Z" transform="translate(272.662 511.701)" fill="url(#ja)"/><path d="M884.777,690.992l-3.416,1.976v-3.946Z" transform="translate(642.195 562.027)" fill="url(#jb)"/><path d="M901.08,668.371l-5.768-3.327,5.768-3.333Z" transform="translate(655.03 536.901)" fill="url(#jc)"/><path d="M936.749,613.159l-10.547,6.09V607.067Z" transform="translate(683.449 486.629)" fill="url(#jd)"/><path d="M952.888,596.061l-14.546-8.4,14.546-8.4Z" transform="translate(694.618 461.045)" fill="url(#je)"/><path d="M998.9,538.727l-30,17.318V521.409Z" transform="translate(722.734 407.823)" fill="url(#jf)"/><path d="M1015.945,538.459l-40.556-23.414,40.556-23.414Z" transform="translate(728.701 380.426)" fill="url(#jg)"/><path d="M1069.923,467.27l-60.179,34.75v-69.5Z" transform="translate(760.307 326.043)" fill="url(#jh)"/><path d="M1078.749,480.538l-66.18-38.212,66.18-38.214Z" transform="translate(762.906 299.91)" fill="url(#ji)"/><path d="M1074.593,421.878l-59.81-34.525,59.81-34.525Z" transform="translate(764.943 252.728)" fill="url(#jj)"/><path d="M1062.175,358.258,1011.368,387.6V328.926Z" transform="translate(761.802 230.739)" fill="url(#jk)"/><path d="M1007.478,314.544,979.9,298.622l27.581-15.915Z" transform="translate(732.848 188.217)" fill="url(#jl)"/><path d="M988.054,269.056l-16.871,9.74V259.322Z" transform="translate(724.831 166.703)" fill="url(#jm)"/><path d="M946.759,215.585l-5.159-2.97,5.159-2.978Z" transform="translate(697.615 120.993)" fill="url(#jn)"/><path d="M930.052,185.259l-2.442,1.407V183.85Z" transform="translate(684.744 97.269)" fill="url(#jo)"/><path d="M897.38,131.466l-.1-.058.1-.065Z" transform="translate(656.842 48.962)" fill="url(#jp)"/><path d="M651.659,78.2l-.117.065v-.129Z" transform="translate(430.762 0.012)" fill="url(#jq)"/><path d="M620.943,78.3l-.156-.09.156-.09Z" transform="translate(402.467)" fill="url(#jr)"/><path d="M559.508,78.2l-.123.071v-.142Z" transform="translate(345.977 0.009)" fill="url(#js)"/><path d="M528.708,78.2l-.038-.019.038-.019Z" transform="translate(317.719 0.034)" fill="url(#jt)"/><path d="M482.813,105.032l-.311-.175.311-.175Z" transform="translate(275.245 24.435)" fill="url(#ju)"/><path d="M468.352,131.749l-1.336.768v-1.544Z" transform="translate(260.998 48.622)" fill="url(#jv)"/><path d="M440.554,189.851l-6.167-3.558,6.167-3.565Z" transform="translate(230.979 96.237)" fill="url(#jw)"/><path d="M430.146,214.194l-10.865,6.265V207.921Z" transform="translate(217.081 119.414)" fill="url(#jx)"/><path d="M406.263,285.083,382.04,271.094l24.223-13.985Z" transform="translate(182.82 164.667)" fill="url(#jy)"/><path d="M403.018,300.343l-33.8,19.513v-39.02Z" transform="translate(171.027 186.496)" fill="url(#jz)"/><path d="M379.8,390.55,325.53,359.215,379.8,327.883Z" transform="translate(130.83 229.779)" fill="url(#ka)"/><path d="M380.142,387.923,318.27,423.648V352.2Z" transform="translate(124.151 252.154)" fill="url(#kb)"/><path d="M391.78,445.027,315.827,488.88V401.174Z" transform="translate(121.904 297.207)" fill="url(#kc)"/><path d="M393.767,515.236,318.1,471.548l75.669-43.682Z" transform="translate(123.993 321.764)" fill="url(#kd)"/><path d="M420.976,519.185l-55.525,32.056V487.129Z" transform="translate(167.558 376.286)" fill="url(#ke)"/><path d="M417.166,565.375l-40.925-23.627,40.925-23.622Z" transform="translate(177.485 404.803)" fill="url(#kf)"/><path d="M436.083,588.628l-18.046,10.418V578.21Z" transform="translate(215.937 460.08)" fill="url(#kg)"/><path d="M443.8,619.76l-11.142-6.432,11.142-6.444Z" transform="translate(229.391 486.46)" fill="url(#kh)"/><path d="M470.035,664.378l-3.373,1.939v-3.882Z" transform="translate(260.672 537.567)" fill="url(#ki)"/><path d="M483.634,691.391l-1.571-.91,1.571-.9Z" transform="translate(274.841 562.538)" fill="url(#kj)"/><path d="M932.012,664.781l-4.819,2.778V662Z" transform="translate(684.361 537.164)" fill="url(#kk)"/><path d="M947.464,642.176l-6.238-3.606,6.238-3.6Z" transform="translate(697.271 512.296)" fill="url(#kl)"/><path d="M984.148,587,972,594.012V579.983Z" transform="translate(725.587 461.711)" fill="url(#km)"/><path d="M1001.969,573.389l-19.148-11.057,19.148-11.059Z" transform="translate(735.538 435.298)" fill="url(#kn)"/><path d="M1053.993,515.139l-40.906,23.612V491.527Z" transform="translate(763.383 380.332)" fill="url(#ko)"/><path d="M1070.895,523.464,1016.747,492.2l54.148-31.261Z" transform="translate(766.75 352.191)" fill="url(#kp)"/><path d="M1121.866,442.629l-67.279,38.843V403.782Z" transform="translate(801.563 299.606)" fill="url(#kq)"/><path d="M1122.623,451.045l-62.8-36.263,62.8-36.255Z" transform="translate(806.379 276.372)" fill="url(#kr)"/><path d="M1114.886,387.081l-58.833,33.969V353.118Z" transform="translate(802.912 252.995)" fill="url(#ks)"/><path d="M1061.015,350.913,1022,328.392l39.013-22.522Z" transform="translate(771.585 209.527)" fill="url(#kt)"/><path d="M1042.554,298.481l-27.066,15.631V282.86Z" transform="translate(765.592 188.358)" fill="url(#ku)"/><path d="M994.859,244.84l-8.254-4.762,8.254-4.773Z" transform="translate(739.019 144.607)" fill="url(#kv)"/><path d="M977.216,212.231l-3.759,2.16v-4.333Z" transform="translate(726.923 121.38)" fill="url(#kw)"/><path d="M943.694,158.373l-.461-.265.461-.265Z" transform="translate(699.117 73.342)" fill="url(#kx)"/><path d="M928.055,131.387l-.027.012v-.033Z" transform="translate(685.129 48.984)" fill="url(#ky)"/><path d="M437,132l-.724-.419.724-.42Z" transform="translate(232.72 48.792)" fill="url(#kz)"/><path d="M422.811,158.532l-1.989,1.15v-2.3Z" transform="translate(218.499 72.918)" fill="url(#la)"/><path d="M395.994,218.44l-8.494-4.9,8.494-4.906Z" transform="translate(187.843 120.069)" fill="url(#lb)"/><path d="M386.524,241.624l-13.836,7.989V233.627Z" transform="translate(174.216 143.064)" fill="url(#lc)"/><path d="M363.07,315.463l-28.646-16.541,28.646-16.541Z" transform="translate(139.013 187.917)" fill="url(#ld)"/><path d="M359.7,327.874l-37.135,21.443V306.433Z" transform="translate(128.103 210.045)" fill="url(#le)"/><path d="M331.567,414.336l-50.976-29.428,50.976-29.428Z" transform="translate(89.487 255.168)" fill="url(#lf)"/><path d="M328.167,412.554l-54.735,31.605v-63.21Z" transform="translate(82.9 278.6)" fill="url(#lg)"/><path d="M343.856,483.623l-69.8-40.3,69.8-40.3Z" transform="translate(83.476 298.91)" fill="url(#lh)"/><path d="M388.957,497.289,316.419,539.17V455.408Z" transform="translate(122.448 347.102)" fill="url(#li)"/><path d="M384.715,556.6l-61.8-35.681,61.8-35.681Z" transform="translate(128.422 374.549)" fill="url(#lj)"/><path d="M402.153,566.089l-32.748,18.9v-37.8Z" transform="translate(171.196 431.541)" fill="url(#lk)"/><path d="M403.964,601.314l-20.7-11.946,20.7-11.958Z" transform="translate(183.943 459.344)" fill="url(#ll)"/><path d="M425.819,638.4l-5.628,3.25v-6.5Z" transform="translate(217.92 512.463)" fill="url(#lm)"/><path d="M438.012,665.387l-2.273-1.311,2.273-1.311Z" transform="translate(232.223 537.87)" fill="url(#ln)"/><path d="M945.008,692.167l-2.473-1.434,2.473-1.428Z" transform="translate(698.475 562.287)" fill="url(#lo)"/><path d="M977.744,638.061l-4.4,2.54v-5.082Z" transform="translate(726.82 512.804)" fill="url(#lp)"/><path d="M993.639,615.69l-6.382-3.682,6.382-3.688Z" transform="translate(739.619 487.78)" fill="url(#lq)"/><path d="M1035.313,562.094l-18.3,10.568V551.53Z" transform="translate(766.995 435.535)" fill="url(#lr)"/><path d="M1055.55,556.607l-30.641-17.7,30.641-17.7Z" transform="translate(774.259 407.64)" fill="url(#ls)"/><path d="M1115.135,493.583l-59.13,34.136V459.438Z" transform="translate(802.868 350.81)" fill="url(#lt)"/><path d="M1124.339,506.493l-65.432-37.778,65.432-37.772Z" transform="translate(805.537 324.594)" fill="url(#lu)"/><path d="M1158.583,412.89l-55.949,32.3V380.586Z" transform="translate(845.766 278.266)" fill="url(#lv)"/><path d="M1113.864,386.374l-49.388-28.51,49.388-28.51Z" transform="translate(810.661 231.133)" fill="url(#lw)"/><path d="M1098.734,328.466l-39.287,22.683v-45.36Z" transform="translate(806.034 209.453)" fill="url(#lx)"/><path d="M1045.8,277.805l-15.707-9.068,15.707-9.068Z" transform="translate(779.032 167.022)" fill="url(#ly)"/><path d="M1026.376,239.861l-7.486,4.314v-8.632Z" transform="translate(768.722 144.826)" fill="url(#lz)"/><path d="M990.031,185.313l-.86-.49.86-.5Z" transform="translate(741.38 97.707)" fill="url(#ma)"/><path d="M974.195,158.009l-.1.058v-.115Z" transform="translate(727.51 73.442)" fill="url(#mb)"/><path d="M421.178,104.779l-.013.008v-.021Z" transform="translate(218.815 24.512)" fill="url(#mc)"/><path d="M391.26,159.035l-1.24-.71,1.24-.718Z" transform="translate(190.161 73.125)" fill="url(#md)"/><path d="M377.779,185.485l-3.254,1.88V183.6Z" transform="translate(175.906 97.043)" fill="url(#me)"/><path d="M350.993,246.459,340.846,240.6l10.147-5.866Z" transform="translate(144.921 144.087)" fill="url(#mf)"/><path d="M341.07,268.43l-14.592,8.433V260.005Z" transform="translate(131.703 167.331)" fill="url(#mg)"/><path d="M316.036,340.812l-27.185-15.694,27.185-15.69Z" transform="translate(97.086 212.801)" fill="url(#mh)"/><path d="M309.546,353.11l-32.2,18.6V334.521Z" transform="translate(86.498 235.886)" fill="url(#mi)"/><path d="M279.418,433l-41.67-24.06,41.67-24.054Z" transform="translate(50.071 282.218)" fill="url(#mj)"/><path d="M340.644,469.932,270.808,510.25V429.622Z" transform="translate(80.486 323.379)" fill="url(#mk)"/><path d="M346.146,539.829,272.84,497.5l73.306-42.326Z" transform="translate(82.356 346.889)" fill="url(#ml)"/><path d="M373.36,545.274,319.7,576.261v-61.97Z" transform="translate(125.463 401.275)" fill="url(#mm)"/><path d="M368.852,589.056l-37.5-21.652,37.5-21.65Z" transform="translate(136.184 430.221)" fill="url(#mn)"/><path d="M385.53,613.735,372.9,621.02V606.441Z" transform="translate(174.407 486.053)" fill="url(#mo)"/><path d="M394.04,641.537l-5.5-3.174,5.5-3.176Z" transform="translate(188.802 512.5)" fill="url(#mp)"/><path d="M421.424,690.135l-.309.18v-.361Z" transform="translate(218.769 562.885)" fill="url(#mq)"/><path d="M975.565,690.533l-1.759,1.021v-2.035Z" transform="translate(727.245 562.484)" fill="url(#mr)"/><path d="M990.988,665.426l-2.325-1.336,2.325-1.342Z" transform="translate(740.913 537.855)" fill="url(#ms)"/><path d="M1024.343,611.633l-5.025,2.9v-5.806Z" transform="translate(769.116 488.155)" fill="url(#mt)"/><path d="M1042.415,592.61l-10.516-6.065,10.516-6.071Z" transform="translate(780.69 462.163)" fill="url(#mu)"/><path d="M1096.386,540.51l-36.443,21.045V519.469Z" transform="translate(806.491 406.038)" fill="url(#mv)"/><path d="M1115.452,548.081l-51.815-29.918,51.815-29.921Z" transform="translate(809.889 377.31)" fill="url(#mw)"/><path d="M1164.549,468.091l-63.17,36.476V431.624Z" transform="translate(844.612 325.221)" fill="url(#mx)"/><path d="M1164.476,472.121,1108.151,439.6l56.323-32.523Z" transform="translate(850.842 302.636)" fill="url(#my)"/><path d="M1159.065,411.828l-48.038-27.734,48.038-27.729Z" transform="translate(853.488 255.983)" fill="url(#mz)"/><path d="M1151.044,357.156,1104.215,384.2V330.124Z" transform="translate(847.221 231.841)" fill="url(#na)"/><path d="M1100.63,315.864l-29.111-16.817,29.111-16.806Z" transform="translate(817.141 187.789)" fill="url(#nb)"/><path d="M1080.28,269.085l-16.956,9.792V259.291Z" transform="translate(809.601 166.675)" fill="url(#nc)"/><path d="M1037.33,213.521l-2.732-1.576,2.732-1.58Z" transform="translate(783.173 121.663)" fill="url(#nd)"/><path d="M1020.686,184.752l-.6.342V184.4Z" transform="translate(769.821 97.776)" fill="url(#ne)"/><path d="M375.254,131.432l-.2.117v-.232Z" transform="translate(176.393 48.938)" fill="url(#nf)"/><path d="M345.671,186.288l-1.989-1.15,1.989-1.156Z" transform="translate(147.53 97.39)" fill="url(#ng)"/><path d="M332,212.191l-3.617,2.083V210.1Z" transform="translate(133.454 121.417)" fill="url(#nh)"/><path d="M304.212,272.128l-9.066-5.232,9.07-5.226Z" transform="translate(102.877 168.863)" fill="url(#ni)"/><path d="M293.244,294.447l-12.478,7.2v-14.4Z" transform="translate(89.648 192.392)" fill="url(#nj)"/><path d="M266,362.251l-21.116-12.2L266,337.852Z" transform="translate(56.636 238.951)" fill="url(#nk)"/><path d="M257.749,377.8l-25.284,14.6v-29.19Z" transform="translate(45.211 262.277)" fill="url(#nl)"/><path d="M275.353,436.905l-46.583,26.9V410Z" transform="translate(41.811 305.329)" fill="url(#nm)"/><path d="M291.562,502.085l-60.276-34.8,60.276-34.794Z" transform="translate(44.126 326.022)" fill="url(#nn)"/><path d="M338.063,522.281,271.353,560.8V483.764Z" transform="translate(80.988 373.19)" fill="url(#no)"/><path d="M335.482,579.079l-56.97-32.892,56.97-32.89Z" transform="translate(87.574 400.361)" fill="url(#np)"/><path d="M350.691,590.893,324.46,606.042V575.748Z" transform="translate(129.846 457.815)" fill="url(#nq)"/><path d="M353.262,621.857,339.645,614l13.617-7.855Z" transform="translate(143.816 485.783)" fill="url(#nr)"/><path d="M376.332,663.865l-1.505.86v-1.732Z" transform="translate(176.184 538.08)" fill="url(#ns)"/><path d="M390.527,690.142l-.117-.063.117-.063Z" transform="translate(190.52 562.941)" fill="url(#nt)"/><path d="M1021.294,663.821l-1.338.77v-1.549Z" transform="translate(769.702 538.125)" fill="url(#nu)"/><path d="M1037.027,638.776l-2.262-1.3,2.262-1.311Z" transform="translate(783.327 513.395)" fill="url(#nv)"/><path d="M1076.933,587.207l-12.906,7.453V579.754Z" transform="translate(810.248 461.501)" fill="url(#nw)"/><path d="M1099.015,579.786l-26.638-15.377,26.638-15.393Z" transform="translate(817.93 433.222)" fill="url(#nx)"/><path d="M1158.31,519.21l-55.619,32.11V487.1Z" transform="translate(845.819 376.261)" fill="url(#ny)"/><path d="M1167.625,529.456l-61.156-35.315,61.156-35.313Z" transform="translate(849.294 350.25)" fill="url(#nz)"/><path d="M1198.856,437.548l-48.922,28.245V409.3l48.922,28.245" transform="translate(889.282 304.686)" fill="url(#oa)"/><path d="M1200.5,432.369l-40.927-23.635L1200.5,385.1" transform="translate(898.152 282.42)" fill="url(#ob)"/><path d="M1193.592,382.578l-42.555,24.57V358.013l42.555,24.565" transform="translate(890.297 257.499)" fill="url(#oc)"/><path d="M1154.615,352.8,1113.393,329l41.223-23.8Z" transform="translate(855.665 208.914)" fill="url(#od)"/><path d="M1139.355,300.037l-32.684,18.874V281.169Z" transform="translate(849.48 186.802)" fill="url(#oe)"/><path d="M1088.642,246.973l-10.748-6.205,10.748-6.209Z" transform="translate(823.006 143.92)" fill="url(#of)"/><path d="M1069.4,212.238l-3.784,2.189v-4.38Z" transform="translate(811.706 121.37)" fill="url(#og)"/><path d="M1035.552,157.986h-.006l.006-.008Z" transform="translate(784.045 73.467)" fill="url(#oh)"/><path d="M344.413,131.43l-.065-.035.065-.04Z" transform="translate(148.143 48.973)" fill="url(#oi)"/><path d="M329.259,158.065l-.3.167v-.342Z" transform="translate(133.987 73.386)" fill="url(#oj)"/><path d="M299.344,212.556l-1.609-.923,1.609-.927Z" transform="translate(105.259 121.975)" fill="url(#ok)"/><path d="M285.206,238.556l-2.751,1.582v-3.176Z" transform="translate(91.201 146.132)" fill="url(#ol)"/><path d="M256.557,296.677l-6.653-3.842L256.557,289Z" transform="translate(61.255 194.004)" fill="url(#om)"/><path d="M244.338,320.108l-9.055,5.23V314.874Z" transform="translate(47.803 217.811)" fill="url(#on)"/><path d="M217.091,385.138l-16.781-9.688,16.781-9.688Z" transform="translate(15.628 264.627)" fill="url(#oo)"/><path d="M186.861,390.628l22.554,13.021-22.554,13.021" transform="translate(3.255 287.505)" fill="url(#op)"/><path d="M193.047,434.444l37.7-21.767v43.534l-37.7-21.767" transform="translate(8.946 307.79)" fill="url(#oq)"/><path d="M285.876,493.627l-59.32,34.247v-68.49Z" transform="translate(39.774 350.76)" fill="url(#or)"/><path d="M291.694,555.478l-60.482-34.923,60.482-34.923Z" transform="translate(44.058 374.908)" fill="url(#os)"/><path d="M318.272,568.86l-42.76,24.687V544.175Z" transform="translate(84.814 428.768)" fill="url(#ot)"/><path d="M316.42,607.349l-27.769-16.03,27.769-16.032Z" transform="translate(96.902 457.391)" fill="url(#ou)"/><path d="M333.838,638.458,328,641.823v-6.735Z" transform="translate(133.102 512.408)" fill="url(#ov)"/><path d="M345.248,664.6l-1.344-.776,1.344-.781Z" transform="translate(147.735 538.124)" fill="url(#ow)"/><path d="M1035.939,690.559l-.6-.348.6-.342Z" transform="translate(783.859 562.807)" fill="url(#ox)"/><path d="M1068.392,637.555l-2.571,1.48v-2.967Z" transform="translate(811.898 513.31)" fill="url(#oy)"/><path d="M1086.283,616.33l-7.131-4.115,7.131-4.122Z" transform="translate(824.163 487.573)" fill="url(#oz)"/><path d="M1138.664,565.842l-31.847,18.374V547.458Z" transform="translate(849.615 431.788)" fill="url(#pa)"/><path d="M1158.607,570.845l-47.334-27.322,47.334-27.327Z" transform="translate(853.714 403.027)" fill="url(#pb)"/><path d="M1206.656,493.367l-58.364,33.692V459.671l58.364,33.7" transform="translate(887.772 351.024)" fill="url(#pc)"/><path d="M1207.534,494.77l-51.7-29.848,51.7-29.848" transform="translate(894.71 328.394)" fill="url(#pd)"/><path d="M1202.55,381.837l-44.064-25.444,44.064-25.44" transform="translate(897.15 232.604)" fill="url(#pe)"/><path d="M1195.24,329.922l-44.548,25.718V304.206l44.548,25.716" transform="translate(889.98 207.996)" fill="url(#pf)"/><path d="M1146.32,288.736,1117.8,272.278l28.512-16.458Z" transform="translate(859.723 163.481)" fill="url(#pg)"/><path d="M1125.756,242.28l-16.226,9.366V232.914Z" transform="translate(852.111 142.408)" fill="url(#ph)"/><path d="M1082.848,186.183l-1.872-1.079,1.872-1.085Z" transform="translate(825.841 97.424)" fill="url(#pi)"/><path d="M1066.346,158.01l-.092.052v-.111Z" transform="translate(812.297 73.441)" fill="url(#pj)"/><path d="M298.318,158.012l-.038-.019.038-.025Z" transform="translate(105.76 73.457)" fill="url(#pk)"/><path d="M283.061,184.629l-.155.09v-.182Z" transform="translate(91.615 97.901)" fill="url(#pl)"/><path d="M252.882,238.665l-1.021-.588,1.021-.6Z" transform="translate(63.055 146.61)" fill="url(#pm)"/><path d="M238.381,264.9l-1.847,1.073v-2.139Z" transform="translate(48.954 170.857)" fill="url(#pn)"/><path d="M208.871,321.182l-4.191-2.421,4.191-2.423Z" transform="translate(19.648 219.158)" fill="url(#po)"/><path d="M183.323,437.709l42.927,24.783-42.927,24.785" transform="translate(0 330.819)" fill="url(#pp)"/><path d="M188.562,491.224,239.175,462v58.441l-50.613-29.22" transform="translate(4.82 353.17)" fill="url(#pq)"/><path d="M276.229,543.609l-47.647,27.506V516.1Z" transform="translate(41.638 402.94)" fill="url(#pr)"/><path d="M277.25,589.787,238.9,567.645,277.25,545.5Z" transform="translate(51.127 429.983)" fill="url(#ps)"/><path d="M295.044,614.294l-14.655,8.456V605.834Z" transform="translate(89.301 485.494)" fill="url(#pt)"/><path d="M302.133,641.861l-5.879-3.391,5.879-3.4Z" transform="translate(103.897 512.395)" fill="url(#pu)"/><path d="M329.035,690.054l-.027.019v-.033Z" transform="translate(134.03 562.965)" fill="url(#pv)"/><path d="M1066.731,690.2l-.561.33v-.653Z" transform="translate(812.22 562.816)" fill="url(#pw)"/><path d="M1082.445,664.521l-1.254-.724,1.254-.73Z" transform="translate(826.039 538.149)" fill="url(#px)"/><path d="M1119.911,612.768l-9.152,5.278V607.488Z" transform="translate(853.241 487.016)" fill="url(#py)"/><path d="M1140.991,601.016l-20.352-11.75,20.352-11.748Z" transform="translate(862.331 459.443)" fill="url(#pz)"/><path d="M1199.111,544.048l-49.231,28.426V515.626l49.231,28.422" transform="translate(889.233 402.503)" fill="url(#qa)"/><path d="M1209.649,550.746l-54.941-31.72,54.941-31.722" transform="translate(893.674 376.446)" fill="url(#qb)"/><path d="M1204.733,331.483l-47.411-27.373,47.411-27.368" transform="translate(896.079 182.73)" fill="url(#qc)"/><path d="M1190.447,275.11l-38.75,22.376V252.742l38.75,22.368" transform="translate(890.904 160.65)" fill="url(#qd)"/><path d="M1136.069,222.13l-12.814-7.4,12.814-7.4Z" transform="translate(864.738 118.873)" fill="url(#qe)"/><path d="M1115.981,185.8l-4.4,2.531v-5.071Z" transform="translate(854 96.728)" fill="url(#qf)"/><path d="M252.219,184.589h-.008l.008-.008Z" transform="translate(63.377 97.941)" fill="url(#qg)"/><path d="M236.924,211.214l-.084.044v-.1Z" transform="translate(49.236 122.394)" fill="url(#qh)"/><path d="M206.415,264.761l-.428-.252.428-.246Z" transform="translate(20.851 171.25)" fill="url(#qi)"/><path d="M183.472,491.176l42.067,24.286-42.067,24.286" transform="translate(0.137 380.009)" fill="url(#qj)"/><path d="M192.847,541.014l38.264-22.089,0,44.181-38.266-22.091" transform="translate(8.762 405.537)" fill="url(#qk)"/><path d="M254.477,589.533l-21.324,12.3V577.224Z" transform="translate(45.844 459.173)" fill="url(#ql)"/><path d="M260.146,620.615,248,613.6l12.15-7.014Z" transform="translate(59.499 486.186)" fill="url(#qm)"/><path d="M283.957,663.79l-1.24.718v-1.434Z" transform="translate(91.442 538.155)" fill="url(#qn)"/><path d="M298.3,690.053l-.013-.006h.013Z" transform="translate(105.766 562.97)" fill="url(#qo)"/><path d="M1113.681,663.9l-1.613.929v-1.866Z" transform="translate(854.446 538.049)" fill="url(#qp)"/><path d="M1130.606,640.631l-4.443-2.559,4.443-2.563Z" transform="translate(867.413 512.794)" fill="url(#qq)"/><path d="M1176.663,589.742l-22.07,12.745V577Z" transform="translate(893.569 458.966)" fill="url(#qr)"/><path d="M1197.579,588.158l-36.449-21.043,36.449-21.043" transform="translate(899.583 430.513)" fill="url(#qs)"/><path d="M1197.768,269.162l-36.739-21.2,36.739-21.214" transform="translate(899.49 136.73)" fill="url(#qt)"/><path d="M1176.02,217.082l-21.289,12.29V204.782Z" transform="translate(893.696 116.526)" fill="url(#qu)"/><path d="M1129.339,160.11l-2.5-1.44,2.5-1.44Z" transform="translate(868.035 72.778)" fill="url(#qv)"/><path d="M1112.516,131.432l-.208.111v-.227Z" transform="translate(854.667 48.938)" fill="url(#qw)"/><path d="M186.981,550.455l21.869,12.628-21.869,12.622" transform="translate(3.365 434.546)" fill="url(#qx)"/><path d="M215.771,596.237l-14.759-8.519,14.759-8.519Z" transform="translate(16.274 460.99)" fill="url(#qy)"/><path d="M239.775,637.821l-3.533,2.037V635.78Z" transform="translate(48.685 513.045)" fill="url(#qz)"/><path d="M252.734,664.126l-.795-.459.795-.459Z" transform="translate(63.127 538.278)" fill="url(#ra)"/><path d="M1128.255,690.77l-.841-.491.841-.484Z" transform="translate(868.564 562.738)" fill="url(#rb)"/><path d="M1162.619,638.245l-5.075,2.926v-5.852Z" transform="translate(896.284 512.62)" fill="url(#rc)"/><path d="M1162.844,159.46l-5.347,3.08v-6.167Z" transform="translate(896.24 71.99)" fill="url(#rd)"/><path d="M207.261,638.317l-1.724-.993,1.724-1Z" transform="translate(20.437 513.545)" fill="url(#re)"/><path d="M1159.226,690.313l-.97.563v-1.117Z" transform="translate(896.938 562.704)" fill="url(#rf)"/><path d="M1158.538,104.81l-.136.077v-.154Z" transform="translate(897.072 24.481)" fill="url(#rg)"/></g></svg>